<?xml version="1.0" encoding="UTF-8"?>
<svg id="Layer_1" xmlns="http://www.w3.org/2000/svg" version="1.1" viewBox="0 0 1500 760">
  <!-- Generator: Adobe Illustrator 30.5.0, SVG Export Plug-In . SVG Version: 2.1.4 Build 167)  -->
  <defs>
    <style>
      .st0, .st1, .st2, .st3 {
        fill: none;
      }

      .st4 {
        fill: #0f2938;
      }

      .st4, .st5, .st6, .st7, .st8, .st9, .st10, .st11, .st12, .st13, .st14, .st15 {
        isolation: isolate;
      }

      .st4, .st5, .st6, .st7, .st9, .st11, .st13, .st14 {
        font-family: Arial-BoldMT, Arial;
        font-weight: 700;
      }

      .st4, .st5, .st9 {
        font-size: 22px;
      }

      .st5, .st16 {
        fill: #0f4761;
      }

      .st6 {
        font-size: 17px;
      }

      .st6, .st13, .st15 {
        fill: #595959;
      }

      .st17 {
        fill: #6f8da2;
      }

      .st18 {
        fill: #f7f9fa;
        stroke: #1f497d;
      }

      .st18, .st1, .st19, .st16 {
        stroke-width: 2px;
      }

      .st7 {
        font-size: 20px;
      }

      .st7, .st8, .st9, .st20, .st14, .st19 {
        fill: #fff;
      }

      .st8, .st10, .st12, .st15 {
        font-family: ArialMT, Arial;
        font-size: 16px;
      }

      .st21 {
        fill: #6e8797;
      }

      .st22 {
        fill: #1f497d;
      }

      .st10, .st23 {
        fill: #1d262d;
      }

      .st11 {
        fill: #1f2d35;
      }

      .st11, .st13 {
        font-size: 15px;
      }

      .st12 {
        fill: #263943;
      }

      .st1, .st2 {
        stroke: #9aabb6;
      }

      .st1, .st2, .st3 {
        stroke-dasharray: 8 7;
      }

      .st24 {
        fill: #e8eef2;
        stroke: #cad6dd;
        stroke-width: 1.5px;
      }

      .st2 {
        stroke-width: .8px;
      }

      .st14 {
        font-size: 23px;
      }

      .st25 {
        fill: #d9d9d9;
        stroke: #c7c7c7;
      }

      .st26 {
        fill: #bcccd8;
      }

      .st27 {
        fill: #2e5a78;
      }

      .st19 {
        stroke: #bfc7cd;
      }

      .st3 {
        stroke: #1d262d;
      }

      .st16 {
        stroke: #fff;
      }
    </style>
  </defs>
  <rect class="st20" width="1500" height="760"/>
  <rect class="st19" x="80.1" y="71.6" width="1310.3" height="588.4" rx="22.8" ry="22.8"/>
  <rect class="st22" x="85" y="80" width="350" height="58" rx="8" ry="8"/>
  <text class="st14" transform="translate(104.7 116)"><tspan x="0" y="0">Data meaning and exchange</tspan></text>
  <rect class="st2" x="190" y="150" width="140" height="36" rx="7" ry="7"/>
  <rect class="st2" x="842.5" y="149" width="140" height="36" rx="7" ry="7"/>
  <text class="st13" transform="translate(220.4 173)"><tspan x="0" y="0">Section 4.1</tspan></text>
  <rect class="st22" x="445" y="80" width="935" height="58" rx="8" ry="8"/>
  <text class="st14" transform="translate(731 116)"><tspan x="0" y="0">Organisational data management</tspan></text>
  <text class="st13" transform="translate(872.9 173)"><tspan x="0" y="0">Section 4.2</tspan></text>
  <path class="st0" d=""/>
  <path class="st22" d="M497,190" marker-end="url(#arrow-blue)" marker-start="url(#arrow-blue)"/>
  <text class="st11" transform="translate(402.6 168)"><tspan x="0" y="0">complementary</tspan></text>
  <rect class="st18" x="115" y="205" width="280" height="270" rx="14" ry="14"/>
  <rect class="st24" x="135" y="225" width="240" height="68" rx="10" ry="10"/>
  <text class="st5" transform="translate(169.4 254)"><tspan x="0" y="0">Shared meaning</tspan></text>
  <text class="st15" transform="translate(164.3 280)"><tspan x="0" y="0">tools, disciplines, projects</tspan></text>
  <rect class="st25" x="137" y="325" width="236" height="32" rx="8" ry="8"/>
  <text class="st11" transform="translate(174.5 347)"><tspan x="0" y="0">IFC - ISO 16739-1:2024</tspan></text>
  <rect class="st25" x="137" y="372" width="236" height="32" rx="8" ry="8"/>
  <text class="st11" transform="translate(188.3 394)"><tspan x="0" y="0">COBie - NBIMS-US</tspan></text>
  <rect class="st25" x="137" y="419" width="236" height="32" rx="8" ry="8"/>
  <text class="st11" transform="translate(160.4 441)"><tspan x="0" y="0">ISO 22057:2022 - EPD data</tspan></text>
  <text class="st15" transform="translate(134 520)"><tspan x="0" y="0">Reference standards for meaning,</tspan></text>
  <text class="st15" transform="translate(166.9 543)"><tspan x="0" y="0">handover and exchange.</tspan></text>
  <text class="st6" transform="translate(448 450.1) rotate(-90)"><tspan x="0" y="0">Three layers</tspan></text>
  <rect class="st27" x="505" y="190" width="860" height="125" rx="8" ry="8"/>
  <circle class="st16" cx="545" cy="229" r="21"/>
  <text class="st7" transform="translate(539.4 236)"><tspan x="0" y="0">1</tspan></text>
  <text class="st9" transform="translate(585 224)"><tspan x="0" y="0">Governance layer</tspan></text>
  <text class="st8" transform="translate(585 253)"><tspan x="0" y="0">strategic oversight, accountability, executive level</tspan></text>
  <rect class="st25" x="585" y="275" width="185" height="30" rx="7" ry="7"/>
  <text class="st11" transform="translate(607.9 295)"><tspan x="0" y="0">ISO/IEC 38507:2022</tspan></text>
  <rect class="st25" x="785" y="275" width="185" height="30" rx="7" ry="7"/>
  <text class="st11" transform="translate(807.9 295)"><tspan x="0" y="0">ISO/IEC 42001:2023</tspan></text>
  <rect class="st25" x="985" y="275" width="185" height="30" rx="7" ry="7"/>
  <text class="st11" transform="translate(1005.3748 295)"><tspan x="0" y="0">ISO/IEC 5259-5:2025</tspan></text>
  <rect class="st17" x="535" y="335" width="815" height="145" rx="8" ry="8"/>
  <circle class="st16" cx="575" cy="376" r="21"/>
  <text class="st7" transform="translate(569.4 383)"><tspan x="0" y="0">2</tspan></text>
  <text class="st9" transform="translate(615 371)"><tspan x="0" y="0">Quality layer</tspan></text>
  <text class="st8" transform="translate(615 400)"><tspan x="0" y="0">how data quality is produced, assured and managed</tspan></text>
  <rect class="st25" x="615" y="420" width="180" height="28" rx="7" ry="7"/>
  <text class="st11" transform="translate(632.9 439)"><tspan x="0" y="0">ISO/IEC 5259-1:2024</tspan></text>
  <rect class="st25" x="810" y="420" width="180" height="28" rx="7" ry="7"/>
  <text class="st11" transform="translate(827.9 439)"><tspan x="0" y="0">ISO/IEC 5259-2:2024</tspan></text>
  <rect class="st25" x="615" y="452" width="180" height="28" rx="7" ry="7"/>
  <text class="st11" transform="translate(632.9 471)"><tspan x="0" y="0">ISO/IEC 5259-3:2024</tspan></text>
  <rect class="st25" x="810" y="452" width="180" height="28" rx="7" ry="7"/>
  <text class="st11" transform="translate(827.9 471)"><tspan x="0" y="0">ISO/IEC 5259-4:2024</tspan></text>
  <rect class="st26" x="565" y="500" width="760" height="145" rx="8" ry="8"/>
  <circle class="st16" cx="605" cy="541" r="21"/>
  <text class="st7" transform="translate(599.4 548)"><tspan x="0" y="0">3</tspan></text>
  <text class="st4" transform="translate(645 535)"><tspan x="0" y="0">Architecture and risk layer</tspan></text>
  <text class="st12" transform="translate(645 564)"><tspan x="0" y="0">ML reference architecture, lifecycle and risk</tspan></text>
  <rect class="st25" x="645" y="583" width="170" height="28" rx="7" ry="7"/>
  <text class="st11" transform="translate(660.4 602)"><tspan x="0" y="0">ISO/IEC 22989:2022</tspan></text>
  <rect class="st25" x="830" y="583" width="170" height="28" rx="7" ry="7"/>
  <text class="st11" transform="translate(845.4 602)"><tspan x="0" y="0">ISO/IEC 23053:2022</tspan></text>
  <rect class="st25" x="1015" y="583" width="170" height="28" rx="7" ry="7"/>
  <text class="st11" transform="translate(1034.5435 602)"><tspan x="0" y="0">ISO/IEC 5338:2023</tspan></text>
  <rect class="st25" x="645" y="615" width="170" height="28" rx="7" ry="7"/>
  <text class="st11" transform="translate(660.4 634)"><tspan x="0" y="0">ISO/IEC 23894:2023</tspan></text>
  <rect class="st25" x="830" y="615" width="170" height="28" rx="7" ry="7"/>
  <text class="st11" transform="translate(845.4 634)"><tspan x="0" y="0">ISO/IEC 42005:2025</tspan></text>
  <path class="st0" d=""/>
  <path class="st21" d="M1145,690" marker-end="url(#arrow-soft)"/>
  <rect class="st2" x="111" y="598.2" width="430" height="50" rx="7" ry="7"/>
  <text class="st10" transform="translate(178.8 629.2)"><tspan x="0" y="0">Figure 5: dataset-level quality dimensions</tspan></text>
  <g>
    <line class="st20" x1="535" y1="472" x2="535" y2="598.2"/>
    <g>
      <line class="st3" x1="535" y1="472" x2="535" y2="591"/>
      <polygon class="st23" points="530 589.6 535 598.2 540 589.6 530 589.6"/>
    </g>
  </g>
  <polyline class="st1" points="497 250 476.2 250 476.2 581 497 581"/>
</svg>