<?xml version="1.0" encoding="UTF-8"?>
<svg xmlns="http://www.w3.org/2000/svg" width="1600" height="920" viewBox="0 0 1600 920" role="img" aria-labelledby="figure-title figure-desc">
  <title id="figure-title">Physical scale of a common 42U equipment rack</title>
  <desc id="figure-desc">Technical diagram comparing the front and side views of a standard 42U equipment rack, showing overall dimensions (width, height, depth) and rack unit spacing.</desc>

  <defs>
    <!-- Ventilation mesh pattern for the front door -->
    <pattern id="rack-mesh" width="8" height="8" patternUnits="userSpaceOnUse">
      <circle cx="4" cy="4" r="1.5" fill="#7F8C8D" opacity="0.25"/>
    </pattern>
    <!-- Arrowhead definition for dimension lines -->
    <marker id="arrow" viewBox="0 0 10 10" refX="5" refY="5" markerWidth="6" markerHeight="6" orient="auto-start-reverse">
      <path d="M 0 1.5 L 10 5 L 0 8.5 z" fill="#000F46"/>
    </marker>
    <marker id="arrow-grey" viewBox="0 0 10 10" refX="5" refY="5" markerWidth="6" markerHeight="6" orient="auto-start-reverse">
      <path d="M 0 1.5 L 10 5 L 0 8.5 z" fill="#7F8C8D"/>
    </marker>
  </defs>

  <!-- Canvas Background -->
  <rect width="1600" height="920" fill="#FFFFFF"/>


  <!-- Shared Floor Baseline -->
  <line x1="100" y1="750" x2="1500" y2="750" stroke="#7F8C8D" stroke-width="1.5" stroke-dasharray="4,4"/>
  <text x="100" y="770" font-family="Arial, sans-serif" font-size="12" fill="#7F8C8D" text-anchor="start">Data Centre Floor Baseline</text>

  <!-- ========================================== -->
  <!--             FRONT VIEW (LEFT)              -->
  <!-- ========================================== -->
  <g id="front-view">
    <!-- View Subtitle -->
    <text x="405" y="772" font-family="Arial, sans-serif" font-size="18" font-weight="bold" fill="#000F46">Front View</text>

    <!-- Outer Frame Top & Bottom -->
    <rect x="363" y="170" width="174" height="20" fill="#DCE6EF" stroke="#000F46" stroke-width="2"/>
    <rect x="363" y="730" width="174" height="20" fill="#DCE6EF" stroke="#000F46" stroke-width="2"/>

    <!-- Outer Side Uprights -->
    <rect x="363" y="190" width="17" height="540" fill="#DCE6EF" stroke="#000F46" stroke-width="2"/>
    <rect x="520" y="190" width="17" height="540" fill="#DCE6EF" stroke="#000F46" stroke-width="2"/>

    <!-- Central Panel Area (White background) -->
    <rect x="380" y="190" width="140" height="540" fill="#F7F9FA"/>

    <!-- Perforated Door Pattern (Mesh) -->
    <rect x="388" y="190" width="124" height="540" fill="url(#rack-mesh)"/>

    <!-- Left and Right Mounting Rails -->
    <rect x="380" y="190" width="8" height="540" fill="#C8C8C8" stroke="#7F8C8D" stroke-width="1"/>
    <rect x="512" y="190" width="8" height="540" fill="#C8C8C8" stroke="#7F8C8D" stroke-width="1"/>

    <!-- 42U Vertical Grid Lines and U labels -->
    <!-- Loop generated lines will be inserted here -->
        <line x1="380" y1="190.00" x2="386" y2="190.00" stroke="#7F8C8D" stroke-width="0.75" />
    <line x1="514" y1="190.00" x2="520" y2="190.00" stroke="#7F8C8D" stroke-width="0.75" />
    <line x1="380" y1="202.86" x2="386" y2="202.86" stroke="#7F8C8D" stroke-width="0.75" />
    <line x1="514" y1="202.86" x2="520" y2="202.86" stroke="#7F8C8D" stroke-width="0.75" />
    <line x1="380" y1="215.71" x2="386" y2="215.71" stroke="#7F8C8D" stroke-width="0.75" />
    <line x1="514" y1="215.71" x2="520" y2="215.71" stroke="#7F8C8D" stroke-width="0.75" />
    <line x1="380" y1="228.57" x2="386" y2="228.57" stroke="#7F8C8D" stroke-width="0.75" />
    <line x1="514" y1="228.57" x2="520" y2="228.57" stroke="#7F8C8D" stroke-width="0.75" />
    <line x1="380" y1="241.43" x2="386" y2="241.43" stroke="#7F8C8D" stroke-width="0.75" />
    <line x1="514" y1="241.43" x2="520" y2="241.43" stroke="#7F8C8D" stroke-width="0.75" />
    <line x1="380" y1="254.29" x2="386" y2="254.29" stroke="#7F8C8D" stroke-width="0.75" />
    <line x1="514" y1="254.29" x2="520" y2="254.29" stroke="#7F8C8D" stroke-width="0.75" />
    <line x1="380" y1="267.14" x2="386" y2="267.14" stroke="#7F8C8D" stroke-width="0.75" />
    <line x1="514" y1="267.14" x2="520" y2="267.14" stroke="#7F8C8D" stroke-width="0.75" />
    <line x1="380" y1="280.00" x2="386" y2="280.00" stroke="#7F8C8D" stroke-width="0.75" />
    <line x1="514" y1="280.00" x2="520" y2="280.00" stroke="#7F8C8D" stroke-width="0.75" />
    <line x1="380" y1="292.86" x2="386" y2="292.86" stroke="#7F8C8D" stroke-width="0.75" />
    <line x1="514" y1="292.86" x2="520" y2="292.86" stroke="#7F8C8D" stroke-width="0.75" />
    <line x1="380" y1="305.71" x2="386" y2="305.71" stroke="#7F8C8D" stroke-width="0.75" />
    <line x1="514" y1="305.71" x2="520" y2="305.71" stroke="#7F8C8D" stroke-width="0.75" />
    <line x1="380" y1="318.57" x2="386" y2="318.57" stroke="#7F8C8D" stroke-width="0.75" />
    <line x1="514" y1="318.57" x2="520" y2="318.57" stroke="#7F8C8D" stroke-width="0.75" />
    <line x1="380" y1="331.43" x2="386" y2="331.43" stroke="#7F8C8D" stroke-width="0.75" />
    <line x1="514" y1="331.43" x2="520" y2="331.43" stroke="#7F8C8D" stroke-width="0.75" />
    <line x1="380" y1="344.29" x2="386" y2="344.29" stroke="#7F8C8D" stroke-width="0.75" />
    <line x1="514" y1="344.29" x2="520" y2="344.29" stroke="#7F8C8D" stroke-width="0.75" />
    <line x1="380" y1="357.14" x2="386" y2="357.14" stroke="#7F8C8D" stroke-width="0.75" />
    <line x1="514" y1="357.14" x2="520" y2="357.14" stroke="#7F8C8D" stroke-width="0.75" />
    <line x1="380" y1="370.00" x2="386" y2="370.00" stroke="#7F8C8D" stroke-width="0.75" />
    <line x1="514" y1="370.00" x2="520" y2="370.00" stroke="#7F8C8D" stroke-width="0.75" />
    <line x1="380" y1="382.86" x2="386" y2="382.86" stroke="#7F8C8D" stroke-width="0.75" />
    <line x1="514" y1="382.86" x2="520" y2="382.86" stroke="#7F8C8D" stroke-width="0.75" />
    <line x1="380" y1="395.71" x2="386" y2="395.71" stroke="#7F8C8D" stroke-width="0.75" />
    <line x1="514" y1="395.71" x2="520" y2="395.71" stroke="#7F8C8D" stroke-width="0.75" />
    <line x1="380" y1="408.57" x2="386" y2="408.57" stroke="#7F8C8D" stroke-width="0.75" />
    <line x1="514" y1="408.57" x2="520" y2="408.57" stroke="#7F8C8D" stroke-width="0.75" />
    <line x1="380" y1="421.43" x2="386" y2="421.43" stroke="#7F8C8D" stroke-width="0.75" />
    <line x1="514" y1="421.43" x2="520" y2="421.43" stroke="#7F8C8D" stroke-width="0.75" />
    <line x1="380" y1="434.29" x2="386" y2="434.29" stroke="#7F8C8D" stroke-width="0.75" />
    <line x1="514" y1="434.29" x2="520" y2="434.29" stroke="#7F8C8D" stroke-width="0.75" />
    <line x1="380" y1="447.14" x2="386" y2="447.14" stroke="#7F8C8D" stroke-width="0.75" />
    <line x1="514" y1="447.14" x2="520" y2="447.14" stroke="#7F8C8D" stroke-width="0.75" />
    <line x1="380" y1="460.00" x2="386" y2="460.00" stroke="#7F8C8D" stroke-width="0.75" />
    <line x1="514" y1="460.00" x2="520" y2="460.00" stroke="#7F8C8D" stroke-width="0.75" />
    <line x1="380" y1="472.86" x2="386" y2="472.86" stroke="#7F8C8D" stroke-width="0.75" />
    <line x1="514" y1="472.86" x2="520" y2="472.86" stroke="#7F8C8D" stroke-width="0.75" />
    <line x1="380" y1="485.71" x2="386" y2="485.71" stroke="#7F8C8D" stroke-width="0.75" />
    <line x1="514" y1="485.71" x2="520" y2="485.71" stroke="#7F8C8D" stroke-width="0.75" />
    <line x1="380" y1="498.57" x2="386" y2="498.57" stroke="#7F8C8D" stroke-width="0.75" />
    <line x1="514" y1="498.57" x2="520" y2="498.57" stroke="#7F8C8D" stroke-width="0.75" />
    <line x1="380" y1="511.43" x2="386" y2="511.43" stroke="#7F8C8D" stroke-width="0.75" />
    <line x1="514" y1="511.43" x2="520" y2="511.43" stroke="#7F8C8D" stroke-width="0.75" />
    <line x1="380" y1="524.29" x2="386" y2="524.29" stroke="#7F8C8D" stroke-width="0.75" />
    <line x1="514" y1="524.29" x2="520" y2="524.29" stroke="#7F8C8D" stroke-width="0.75" />
    <line x1="380" y1="537.14" x2="386" y2="537.14" stroke="#7F8C8D" stroke-width="0.75" />
    <line x1="514" y1="537.14" x2="520" y2="537.14" stroke="#7F8C8D" stroke-width="0.75" />
    <line x1="380" y1="550.00" x2="386" y2="550.00" stroke="#7F8C8D" stroke-width="0.75" />
    <line x1="514" y1="550.00" x2="520" y2="550.00" stroke="#7F8C8D" stroke-width="0.75" />
    <line x1="380" y1="562.86" x2="386" y2="562.86" stroke="#7F8C8D" stroke-width="0.75" />
    <line x1="514" y1="562.86" x2="520" y2="562.86" stroke="#7F8C8D" stroke-width="0.75" />
    <line x1="380" y1="575.71" x2="386" y2="575.71" stroke="#7F8C8D" stroke-width="0.75" />
    <line x1="514" y1="575.71" x2="520" y2="575.71" stroke="#7F8C8D" stroke-width="0.75" />
    <line x1="380" y1="588.57" x2="386" y2="588.57" stroke="#7F8C8D" stroke-width="0.75" />
    <line x1="514" y1="588.57" x2="520" y2="588.57" stroke="#7F8C8D" stroke-width="0.75" />
    <line x1="380" y1="601.43" x2="386" y2="601.43" stroke="#7F8C8D" stroke-width="0.75" />
    <line x1="514" y1="601.43" x2="520" y2="601.43" stroke="#7F8C8D" stroke-width="0.75" />
    <line x1="380" y1="614.29" x2="386" y2="614.29" stroke="#7F8C8D" stroke-width="0.75" />
    <line x1="514" y1="614.29" x2="520" y2="614.29" stroke="#7F8C8D" stroke-width="0.75" />
    <line x1="380" y1="627.14" x2="386" y2="627.14" stroke="#7F8C8D" stroke-width="0.75" />
    <line x1="514" y1="627.14" x2="520" y2="627.14" stroke="#7F8C8D" stroke-width="0.75" />
    <line x1="380" y1="640.00" x2="386" y2="640.00" stroke="#7F8C8D" stroke-width="0.75" />
    <line x1="514" y1="640.00" x2="520" y2="640.00" stroke="#7F8C8D" stroke-width="0.75" />
    <line x1="380" y1="652.86" x2="386" y2="652.86" stroke="#7F8C8D" stroke-width="0.75" />
    <line x1="514" y1="652.86" x2="520" y2="652.86" stroke="#7F8C8D" stroke-width="0.75" />
    <line x1="380" y1="665.71" x2="386" y2="665.71" stroke="#7F8C8D" stroke-width="0.75" />
    <line x1="514" y1="665.71" x2="520" y2="665.71" stroke="#7F8C8D" stroke-width="0.75" />
    <line x1="380" y1="678.57" x2="386" y2="678.57" stroke="#7F8C8D" stroke-width="0.75" />
    <line x1="514" y1="678.57" x2="520" y2="678.57" stroke="#7F8C8D" stroke-width="0.75" />
    <line x1="380" y1="691.43" x2="386" y2="691.43" stroke="#7F8C8D" stroke-width="0.75" />
    <line x1="514" y1="691.43" x2="520" y2="691.43" stroke="#7F8C8D" stroke-width="0.75" />
    <line x1="380" y1="704.29" x2="386" y2="704.29" stroke="#7F8C8D" stroke-width="0.75" />
    <line x1="514" y1="704.29" x2="520" y2="704.29" stroke="#7F8C8D" stroke-width="0.75" />
    <line x1="380" y1="717.14" x2="386" y2="717.14" stroke="#7F8C8D" stroke-width="0.75" />
    <line x1="514" y1="717.14" x2="520" y2="717.14" stroke="#7F8C8D" stroke-width="0.75" />
    <line x1="380" y1="730.00" x2="386" y2="730.00" stroke="#7F8C8D" stroke-width="0.75" />
    <line x1="514" y1="730.00" x2="520" y2="730.00" stroke="#7F8C8D" stroke-width="0.75" />
    <line x1="386" y1="723.57" x2="514" y2="723.57" stroke="#EBEBEB" stroke-width="0.5" />
    <line x1="386" y1="466.43" x2="514" y2="466.43" stroke="#EBEBEB" stroke-width="0.5" />
    <line x1="386" y1="196.43" x2="514" y2="196.43" stroke="#EBEBEB" stroke-width="0.5" />

    <!-- Example Equipment (Middle of rack, shifted to right to clear U scale) -->
    <!-- 2U Server: U19 and U20 (y = 472.86 to 498.57) -->
    <rect x="400" y="472.86" width="110" height="25.71" fill="#FFFFFF" stroke="#000F46" stroke-width="1.5"/>
    <rect x="402" y="474.86" width="106" height="21.71" fill="#DCE6EF" stroke="none"/>
    <circle cx="410" cy="485.71" r="2.5" fill="#9FB825"/> <!-- River Red Gum Green Status LED -->
    <circle cx="418" cy="485.71" r="2.5" fill="#7F8C8D"/>
    <text x="428" y="490.50" font-family="Arial, sans-serif" font-size="12" font-weight="bold" fill="#000F46">2U example</text>

    <!-- 1U Server/Switch: U21 (y = 460.00 to 472.86) -->
    <rect x="400" y="460.00" width="110" height="12.86" fill="#FFFFFF" stroke="#000F46" stroke-width="1.5"/>
    <rect x="402" y="462.00" width="106" height="8.86" fill="#EAEAEA" stroke="none"/>
    <circle cx="410" cy="466.43" r="2" fill="#9FB825"/> <!-- River Red Gum Green Status LED -->
    <text x="428" y="469.50" font-family="Arial, sans-serif" font-size="10.5" font-weight="bold" fill="#000F46">1U example</text>

    <!-- U labels placed on top of servers so U20 is visible -->
        <text x="348" y="727.57" font-family="Arial, sans-serif" font-size="11" fill="#5A6769" font-weight="bold" text-anchor="end">1U</text>
    <text x="348" y="470.43" font-family="Arial, sans-serif" font-size="11" fill="#5A6769" font-weight="bold" text-anchor="end">21U</text>
    <text x="348" y="200.43" font-family="Arial, sans-serif" font-size="11" fill="#5A6769" font-weight="bold" text-anchor="end">42U</text>

    <!-- Dimension: Overall Width (600 mm) -->
    <line x1="363" y1="165" x2="363" y2="110" stroke="#7F8C8D" stroke-width="1"/>
    <line x1="537" y1="165" x2="537" y2="110" stroke="#7F8C8D" stroke-width="1"/>
    <line x1="363" y1="120" x2="537" y2="120" stroke="#000F46" stroke-width="1.5" marker-start="url(#arrow)" marker-end="url(#arrow)"/>
    <text x="360" y="110" font-family="Arial, sans-serif" font-size="16" font-weight="bold" fill="#000F46">Overall Width: 600 mm</text>

    <!-- Dimension: Overall Height (2000 mm) -->
    <line x1="358" y1="170" x2="230" y2="170" stroke="#7F8C8D" stroke-width="1"/>
    <line x1="358" y1="750" x2="230" y2="750" stroke="#7F8C8D" stroke-width="1"/>
    <line x1="240" y1="170" x2="240" y2="750" stroke="#000F46" stroke-width="1.5" marker-start="url(#arrow)" marker-end="url(#arrow)"/>
    <text x="30" y="465" font-family="Arial, sans-serif" font-size="16" font-weight="bold" fill="#000F46">Overall Height: 2000 mm</text>

    <!-- Dimension: Mounting Width (482.6 mm / 19 in) -->
    <line x1="380" y1="330" x2="520" y2="330" stroke="#7F8C8D" stroke-width="1.2" marker-start="url(#arrow-grey)" marker-end="url(#arrow-grey)"/>
    <rect x="387" y="288" width="126" height="38" rx="4" fill="#FFFFFF"/>
    <text x="405" y="305" font-family="Arial, sans-serif" font-size="12" font-weight="bold" fill="#333333">Mounting Width</text>
    <text x="400" y="321" font-family="Arial, sans-serif" font-size="12" font-weight="bold" fill="#333333">482.6 mm / 19 in</text>

    <!-- Dimension: 1U = 44.45 mm -->
    <!-- Pointer bracket for U23 on the right side of the front view (y = 434.29 to 447.14) -->
    <line x1="545" y1="434.29" x2="555" y2="434.29" stroke="#000F46" stroke-width="1.5"/>
    <line x1="545" y1="447.14" x2="555" y2="447.14" stroke="#000F46" stroke-width="1.5"/>
    <line x1="550" y1="434.29" x2="550" y2="447.14" stroke="#000F46" stroke-width="1.5"/>
    <path d="M 550 440.71 L 590 440.71" stroke="#000F46" stroke-width="1.2" fill="none"/>
    <circle cx="550" cy="440.71" r="2.5" fill="#000F46"/>
    <text x="597" y="445.28" font-family="Arial, sans-serif" font-size="14" font-weight="bold" fill="#333333" text-anchor="start">1U = 44.45 mm</text>
  </g>

  <!-- ========================================== -->
  <!--             SIDE VIEW (RIGHT)              -->
  <!-- ========================================== -->
  <g id="side-view">
    <!-- View Subtitle -->
    <text x="1055" y="772" font-family="Arial, sans-serif" font-size="18" font-weight="bold" fill="#000F46">Side View</text>

    <!-- Outer Frame Top & Bottom -->
    <rect x="955" y="170" width="290" height="20" fill="#DCE6EF" stroke="#000F46" stroke-width="2"/>
    <rect x="955" y="730" width="290" height="20" fill="#DCE6EF" stroke="#000F46" stroke-width="2"/>

    <!-- Outer Side Uprights (Front & Back) -->
    <rect x="955" y="190" width="15" height="540" fill="#DCE6EF" stroke="#000F46" stroke-width="2"/>
    <rect x="1230" y="190" width="15" height="540" fill="#DCE6EF" stroke="#000F46" stroke-width="2"/>

    <!-- Central Space -->
    <rect x="970" y="190" width="260" height="540" fill="#F7F9FA"/>

    <!-- Horizontal Structural Struts -->
    <line x1="970" y1="370" x2="1230" y2="370" stroke="#7F8C8D" stroke-width="1.5"/>
    <line x1="970" y1="550" x2="1230" y2="550" stroke="#7F8C8D" stroke-width="1.5"/>

    <!-- Internal Front & Rear Mounting Rails -->
    <rect x="985" y="190" width="10" height="540" fill="#C8C8C8" stroke="#7F8C8D" stroke-width="1"/>
    <rect x="1205" y="190" width="10" height="540" fill="#C8C8C8" stroke="#7F8C8D" stroke-width="1"/>

    <!-- Side View Ticks -->
        <line x1="985" y1="190.00" x2="991" y2="190.00" stroke="#7F8C8D" stroke-width="0.75" />
    <line x1="985" y1="202.86" x2="991" y2="202.86" stroke="#7F8C8D" stroke-width="0.75" />
    <line x1="985" y1="215.71" x2="991" y2="215.71" stroke="#7F8C8D" stroke-width="0.75" />
    <line x1="985" y1="228.57" x2="991" y2="228.57" stroke="#7F8C8D" stroke-width="0.75" />
    <line x1="985" y1="241.43" x2="991" y2="241.43" stroke="#7F8C8D" stroke-width="0.75" />
    <line x1="985" y1="254.29" x2="991" y2="254.29" stroke="#7F8C8D" stroke-width="0.75" />
    <line x1="985" y1="267.14" x2="991" y2="267.14" stroke="#7F8C8D" stroke-width="0.75" />
    <line x1="985" y1="280.00" x2="991" y2="280.00" stroke="#7F8C8D" stroke-width="0.75" />
    <line x1="985" y1="292.86" x2="991" y2="292.86" stroke="#7F8C8D" stroke-width="0.75" />
    <line x1="985" y1="305.71" x2="991" y2="305.71" stroke="#7F8C8D" stroke-width="0.75" />
    <line x1="985" y1="318.57" x2="991" y2="318.57" stroke="#7F8C8D" stroke-width="0.75" />
    <line x1="985" y1="331.43" x2="991" y2="331.43" stroke="#7F8C8D" stroke-width="0.75" />
    <line x1="985" y1="344.29" x2="991" y2="344.29" stroke="#7F8C8D" stroke-width="0.75" />
    <line x1="985" y1="357.14" x2="991" y2="357.14" stroke="#7F8C8D" stroke-width="0.75" />
    <line x1="985" y1="370.00" x2="991" y2="370.00" stroke="#7F8C8D" stroke-width="0.75" />
    <line x1="985" y1="382.86" x2="991" y2="382.86" stroke="#7F8C8D" stroke-width="0.75" />
    <line x1="985" y1="395.71" x2="991" y2="395.71" stroke="#7F8C8D" stroke-width="0.75" />
    <line x1="985" y1="408.57" x2="991" y2="408.57" stroke="#7F8C8D" stroke-width="0.75" />
    <line x1="985" y1="421.43" x2="991" y2="421.43" stroke="#7F8C8D" stroke-width="0.75" />
    <line x1="985" y1="434.29" x2="991" y2="434.29" stroke="#7F8C8D" stroke-width="0.75" />
    <line x1="985" y1="447.14" x2="991" y2="447.14" stroke="#7F8C8D" stroke-width="0.75" />
    <line x1="985" y1="460.00" x2="991" y2="460.00" stroke="#7F8C8D" stroke-width="0.75" />
    <line x1="985" y1="472.86" x2="991" y2="472.86" stroke="#7F8C8D" stroke-width="0.75" />
    <line x1="985" y1="485.71" x2="991" y2="485.71" stroke="#7F8C8D" stroke-width="0.75" />
    <line x1="985" y1="498.57" x2="991" y2="498.57" stroke="#7F8C8D" stroke-width="0.75" />
    <line x1="985" y1="511.43" x2="991" y2="511.43" stroke="#7F8C8D" stroke-width="0.75" />
    <line x1="985" y1="524.29" x2="991" y2="524.29" stroke="#7F8C8D" stroke-width="0.75" />
    <line x1="985" y1="537.14" x2="991" y2="537.14" stroke="#7F8C8D" stroke-width="0.75" />
    <line x1="985" y1="550.00" x2="991" y2="550.00" stroke="#7F8C8D" stroke-width="0.75" />
    <line x1="985" y1="562.86" x2="991" y2="562.86" stroke="#7F8C8D" stroke-width="0.75" />
    <line x1="985" y1="575.71" x2="991" y2="575.71" stroke="#7F8C8D" stroke-width="0.75" />
    <line x1="985" y1="588.57" x2="991" y2="588.57" stroke="#7F8C8D" stroke-width="0.75" />
    <line x1="985" y1="601.43" x2="991" y2="601.43" stroke="#7F8C8D" stroke-width="0.75" />
    <line x1="985" y1="614.29" x2="991" y2="614.29" stroke="#7F8C8D" stroke-width="0.75" />
    <line x1="985" y1="627.14" x2="991" y2="627.14" stroke="#7F8C8D" stroke-width="0.75" />
    <line x1="985" y1="640.00" x2="991" y2="640.00" stroke="#7F8C8D" stroke-width="0.75" />
    <line x1="985" y1="652.86" x2="991" y2="652.86" stroke="#7F8C8D" stroke-width="0.75" />
    <line x1="985" y1="665.71" x2="991" y2="665.71" stroke="#7F8C8D" stroke-width="0.75" />
    <line x1="985" y1="678.57" x2="991" y2="678.57" stroke="#7F8C8D" stroke-width="0.75" />
    <line x1="985" y1="691.43" x2="991" y2="691.43" stroke="#7F8C8D" stroke-width="0.75" />
    <line x1="985" y1="704.29" x2="991" y2="704.29" stroke="#7F8C8D" stroke-width="0.75" />
    <line x1="985" y1="717.14" x2="991" y2="717.14" stroke="#7F8C8D" stroke-width="0.75" />
    <line x1="985" y1="730.00" x2="991" y2="730.00" stroke="#7F8C8D" stroke-width="0.75" />
    <line x1="1209" y1="190.00" x2="1215" y2="190.00" stroke="#7F8C8D" stroke-width="0.75" />
    <line x1="1209" y1="202.86" x2="1215" y2="202.86" stroke="#7F8C8D" stroke-width="0.75" />
    <line x1="1209" y1="215.71" x2="1215" y2="215.71" stroke="#7F8C8D" stroke-width="0.75" />
    <line x1="1209" y1="228.57" x2="1215" y2="228.57" stroke="#7F8C8D" stroke-width="0.75" />
    <line x1="1209" y1="241.43" x2="1215" y2="241.43" stroke="#7F8C8D" stroke-width="0.75" />
    <line x1="1209" y1="254.29" x2="1215" y2="254.29" stroke="#7F8C8D" stroke-width="0.75" />
    <line x1="1209" y1="267.14" x2="1215" y2="267.14" stroke="#7F8C8D" stroke-width="0.75" />
    <line x1="1209" y1="280.00" x2="1215" y2="280.00" stroke="#7F8C8D" stroke-width="0.75" />
    <line x1="1209" y1="292.86" x2="1215" y2="292.86" stroke="#7F8C8D" stroke-width="0.75" />
    <line x1="1209" y1="305.71" x2="1215" y2="305.71" stroke="#7F8C8D" stroke-width="0.75" />
    <line x1="1209" y1="318.57" x2="1215" y2="318.57" stroke="#7F8C8D" stroke-width="0.75" />
    <line x1="1209" y1="331.43" x2="1215" y2="331.43" stroke="#7F8C8D" stroke-width="0.75" />
    <line x1="1209" y1="344.29" x2="1215" y2="344.29" stroke="#7F8C8D" stroke-width="0.75" />
    <line x1="1209" y1="357.14" x2="1215" y2="357.14" stroke="#7F8C8D" stroke-width="0.75" />
    <line x1="1209" y1="370.00" x2="1215" y2="370.00" stroke="#7F8C8D" stroke-width="0.75" />
    <line x1="1209" y1="382.86" x2="1215" y2="382.86" stroke="#7F8C8D" stroke-width="0.75" />
    <line x1="1209" y1="395.71" x2="1215" y2="395.71" stroke="#7F8C8D" stroke-width="0.75" />
    <line x1="1209" y1="408.57" x2="1215" y2="408.57" stroke="#7F8C8D" stroke-width="0.75" />
    <line x1="1209" y1="421.43" x2="1215" y2="421.43" stroke="#7F8C8D" stroke-width="0.75" />
    <line x1="1209" y1="434.29" x2="1215" y2="434.29" stroke="#7F8C8D" stroke-width="0.75" />
    <line x1="1209" y1="447.14" x2="1215" y2="447.14" stroke="#7F8C8D" stroke-width="0.75" />
    <line x1="1209" y1="460.00" x2="1215" y2="460.00" stroke="#7F8C8D" stroke-width="0.75" />
    <line x1="1209" y1="472.86" x2="1215" y2="472.86" stroke="#7F8C8D" stroke-width="0.75" />
    <line x1="1209" y1="485.71" x2="1215" y2="485.71" stroke="#7F8C8D" stroke-width="0.75" />
    <line x1="1209" y1="498.57" x2="1215" y2="498.57" stroke="#7F8C8D" stroke-width="0.75" />
    <line x1="1209" y1="511.43" x2="1215" y2="511.43" stroke="#7F8C8D" stroke-width="0.75" />
    <line x1="1209" y1="524.29" x2="1215" y2="524.29" stroke="#7F8C8D" stroke-width="0.75" />
    <line x1="1209" y1="537.14" x2="1215" y2="537.14" stroke="#7F8C8D" stroke-width="0.75" />
    <line x1="1209" y1="550.00" x2="1215" y2="550.00" stroke="#7F8C8D" stroke-width="0.75" />
    <line x1="1209" y1="562.86" x2="1215" y2="562.86" stroke="#7F8C8D" stroke-width="0.75" />
    <line x1="1209" y1="575.71" x2="1215" y2="575.71" stroke="#7F8C8D" stroke-width="0.75" />
    <line x1="1209" y1="588.57" x2="1215" y2="588.57" stroke="#7F8C8D" stroke-width="0.75" />
    <line x1="1209" y1="601.43" x2="1215" y2="601.43" stroke="#7F8C8D" stroke-width="0.75" />
    <line x1="1209" y1="614.29" x2="1215" y2="614.29" stroke="#7F8C8D" stroke-width="0.75" />
    <line x1="1209" y1="627.14" x2="1215" y2="627.14" stroke="#7F8C8D" stroke-width="0.75" />
    <line x1="1209" y1="640.00" x2="1215" y2="640.00" stroke="#7F8C8D" stroke-width="0.75" />
    <line x1="1209" y1="652.86" x2="1215" y2="652.86" stroke="#7F8C8D" stroke-width="0.75" />
    <line x1="1209" y1="665.71" x2="1215" y2="665.71" stroke="#7F8C8D" stroke-width="0.75" />
    <line x1="1209" y1="678.57" x2="1215" y2="678.57" stroke="#7F8C8D" stroke-width="0.75" />
    <line x1="1209" y1="691.43" x2="1215" y2="691.43" stroke="#7F8C8D" stroke-width="0.75" />
    <line x1="1209" y1="704.29" x2="1215" y2="704.29" stroke="#7F8C8D" stroke-width="0.75" />
    <line x1="1209" y1="717.14" x2="1215" y2="717.14" stroke="#7F8C8D" stroke-width="0.75" />
    <line x1="1209" y1="730.00" x2="1215" y2="730.00" stroke="#7F8C8D" stroke-width="0.75" />

    <!-- Dimension: Overall Depth (1000 mm) -->
    <line x1="955" y1="165" x2="955" y2="110" stroke="#7F8C8D" stroke-width="1"/>
    <line x1="1245" y1="165" x2="1245" y2="110" stroke="#7F8C8D" stroke-width="1"/>
    <line x1="955" y1="120" x2="1245" y2="120" stroke="#000F46" stroke-width="1.5" marker-start="url(#arrow)" marker-end="url(#arrow)"/>
    <text x="1010" y="110" font-family="Arial, sans-serif" font-size="16" font-weight="bold" fill="#000F46">Overall Depth: 1000 mm</text>

    <!-- Usable Mounting Height: 42U = 1866.9 mm -->
    <line x1="1245" y1="190" x2="1305" y2="190" stroke="#7F8C8D" stroke-width="1"/>
    <line x1="1245" y1="730" x2="1305" y2="730" stroke="#7F8C8D" stroke-width="1"/>
    <line x1="1290" y1="190" x2="1290" y2="730" stroke="#7F8C8D" stroke-width="1.5" marker-start="url(#arrow-grey)" marker-end="url(#arrow-grey)"/>

    <!-- Callout Box to the right of Side View -->
    <rect x="1320" y="410" width="230" height="80" rx="8" fill="#DCE6EF" stroke="#000F46" stroke-width="1.5"/>
    <text x="1355" y="440" font-family="Arial, sans-serif" font-size="14" font-weight="bold" fill="#000F46">Usable Mounting Height</text>
    <text x="1370" y="470" font-family="Arial, sans-serif" font-size="18" font-weight="bold" fill="#333333">42U = 1866.9 mm</text>

    <!-- Connecting line from Callout to Dimension Line -->
    <line x1="1320" y1="450" x2="1290" y2="450" stroke="#7F8C8D" stroke-width="1.5"/>
    <circle cx="1290" cy="450" r="3" fill="#7F8C8D"/>
  </g>

  <!-- ========================================== -->
  <!--            TEACHING CALLOUT BANNER         -->
  <!-- ========================================== -->
  <g id="teaching-callout">
    <rect x="363" y="795" width="872" height="46" rx="6" fill="#F4F7F9" stroke="#000F46" stroke-dasharray="4,4" stroke-width="1.2"/>
    <text x="479" y="823" font-family="Arial, sans-serif" font-size="15" font-style="italic" fill="#000F46">"High electrical load and heat are concentrated inside this small cabinet footprint."</text>
  </g>

</svg>
