<svg width="1600" height="1000" viewBox="0 0 1600 1000" xmlns="http://www.w3.org/2000/svg" xmlns:xlink="http://www.w3.org/1999/xlink" overflow="hidden"><rect x="0" y="0" width="1600" height="1000" fill="#FFFFFF"/><g id="controls-panel"><rect x="500" y="70" rx="12" ry="12" width="600" height="170" stroke="#6A6A6A" stroke-width="1.5" fill="#F7FAFC"/><path d="M500 82C500 75.3726 505.373 70 512 70L1088 70C1094.63 70 1100 75.3726 1100 82L1100 110 500 110Z" fill="#6A6A6A"/><text fill="#FFFFFF" font-family="Arial,Arial" font-weight="700" font-size="18" text-anchor="middle" x="800" y="96">Controls and Monitoring</text><rect x="520" y="135" rx="8" ry="8" width="160" height="70" stroke="#6A6A6A" stroke-width="1" fill="#FFFFFF"/><text fill="#333333" font-family="Arial,Arial" font-weight="700" font-size="14" text-anchor="middle" x="600" y="165">Sensors &amp; Meters</text><text fill="#555555" font-family="Arial,Arial" font-size="11" text-anchor="middle" x="600" y="185">Temp, flow &amp; power data</text><line x1="680" y1="170" x2="713" y2="170" stroke="#6A6A6A" stroke-width="1.5"/><path d="M711 166 711 174 720 170Z" fill="#6A6A6A"/><rect x="720" y="135" rx="8" ry="8" width="160" height="70" stroke="#6A6A6A" stroke-width="1" fill="#FFFFFF"/><text fill="#333333" font-family="Arial,Arial" font-weight="700" font-size="14" text-anchor="middle" x="800" y="165">BMS / DCIM Platform</text><text fill="#555555" font-family="Arial,Arial" font-size="11" text-anchor="middle" x="800" y="185">Control platform</text><line x1="880" y1="170" x2="913" y2="170" stroke="#6A6A6A" stroke-width="1.5"/><path d="M911 166 911 174 920 170Z" fill="#6A6A6A"/><rect x="920" y="135" rx="8" ry="8" width="160" height="70" stroke="#6A6A6A" stroke-width="1" fill="#FFFFFF"/><text fill="#333333" font-family="Arial,Arial" font-weight="700" font-size="14" text-anchor="middle" x="1000" y="165">Monitoring &amp; Alarms</text><text fill="#555555" font-family="Arial,Arial" font-size="11" text-anchor="middle" x="1000" y="185">Optimisation &amp; alerts</text></g><g id="power-panel"><rect x="80" y="260" rx="12" ry="12" width="360" height="380" stroke="#1F5D7A" stroke-width="1.5" fill="#F7FAFC"/><path d="M80 272C80 265.373 85.3726 260 92 260L428 260C434.627 260 440 265.373 440 272L440 300 80 300Z" fill="#1F5D7A"/><text fill="#FFFFFF" font-family="Arial,Arial" font-weight="700" font-size="18" text-anchor="middle" x="260" y="286">Power Resilience</text><rect x="120" y="312" rx="8" ry="8" width="280" height="45" stroke="#1F5D7A" stroke-width="1" fill="#FFFFFF"/><text fill="#333333" font-family="Arial,Arial" font-weight="700" font-size="13" text-anchor="middle" x="260" y="330">Grid / Utility Connection</text><text fill="#555555" font-family="Arial,Arial" font-size="11" text-anchor="middle" x="260" y="347">High-voltage primary supply</text><line x1="260" y1="357" x2="260" y2="371" stroke="#1F5D7A" stroke-width="1.5"/><path d="M256 369 264 369 260 378Z" fill="#1F5D7A"/><rect x="120" y="378" rx="8" ry="8" width="280" height="45" stroke="#1F5D7A" stroke-width="1" fill="#FFFFFF"/><text fill="#333333" font-family="Arial,Arial" font-weight="700" font-size="13" text-anchor="middle" x="260" y="396">Substation &amp; Transformer</text><text fill="#555555" font-family="Arial,Arial" font-size="11" text-anchor="middle" x="260" y="413">Voltage stepping &amp; safety controls</text><line x1="260" y1="423" x2="260" y2="437" stroke="#1F5D7A" stroke-width="1.5"/><path d="M256 435 264 435 260 444Z" fill="#1F5D7A"/><rect x="120" y="444" rx="8" ry="8" width="280" height="45" stroke="#1F5D7A" stroke-width="1" fill="#FFFFFF"/><text fill="#333333" font-family="Arial,Arial" font-weight="700" font-size="13" text-anchor="middle" x="260" y="462">Switchgear &amp; ATS</text><text fill="#555555" font-family="Arial,Arial" font-size="11" text-anchor="middle" x="260" y="479">Main switches &amp; transfer logic</text><line x1="260" y1="489" x2="260" y2="503" stroke="#1F5D7A" stroke-width="1.5"/><path d="M256 501 264 501 260 510Z" fill="#1F5D7A"/><rect x="120" y="510" rx="8" ry="8" width="280" height="45" stroke="#1F5D7A" stroke-width="1" fill="#FFFFFF"/><text fill="#333333" font-family="Arial,Arial" font-weight="700" font-size="13" text-anchor="middle" x="260" y="528">UPS &amp; Backup Generators</text><text fill="#555555" font-family="Arial,Arial" font-size="11" text-anchor="middle" x="260" y="545">Temporary ride-through &amp; backup power</text><line x1="260" y1="555" x2="260" y2="565" stroke="#1F5D7A" stroke-width="1.5"/><path d="M256 563 264 563 260 572Z" fill="#1F5D7A"/><rect x="120" y="572" rx="8" ry="8" width="280" height="45" stroke="#1F5D7A" stroke-width="1" fill="#FFFFFF"/><text fill="#333333" font-family="Arial,Arial" font-weight="700" font-size="13" text-anchor="middle" x="260" y="590">Power Distribution Units (PDUs)</text><text fill="#555555" font-family="Arial,Arial" font-size="11" text-anchor="middle" x="260" y="607">Final voltage control &amp; rack delivery</text></g><g id="cooling-panel"><rect x="1160" y="260" rx="12" ry="12" width="360" height="380" stroke="#2A7F8F" stroke-width="1.5" fill="#F7FAFC"/><path d="M1160 272C1160 265.373 1165.37 260 1172 260L1508 260C1514.63 260 1520 265.373 1520 272L1520 300 1160 300Z" fill="#2A7F8F"/><text fill="#FFFFFF" font-family="Arial,Arial" font-weight="700" font-size="18" text-anchor="middle" x="1340" y="286">Cooling &amp; Heat Rejection</text><rect x="1200" y="335" rx="8" ry="8" width="280" height="45" stroke="#2A7F8F" stroke-width="1" fill="#FFFFFF"/><text fill="#333333" font-family="Arial,Arial" font-weight="700" font-size="13" text-anchor="middle" x="1340" y="353">Heat from IT Load</text><text fill="#555555" font-family="Arial,Arial" font-size="11" text-anchor="middle" x="1340" y="370">High-density thermal energy generation</text><line x1="1340" y1="380" x2="1340" y2="403" stroke="#2A7F8F" stroke-width="1.5"/><path d="M1336 401 1344 401 1340 410Z" fill="#2A7F8F"/><rect x="1200" y="410" rx="8" ry="8" width="280" height="45" stroke="#2A7F8F" stroke-width="1" fill="#FFFFFF"/><text fill="#333333" font-family="Arial,Arial" font-weight="700" font-size="13" text-anchor="middle" x="1340" y="428">Air / Liquid Cooling Systems</text><text fill="#555555" font-family="Arial,Arial" font-size="11" text-anchor="middle" x="1340" y="445">In-row, CRAC, or liquid-to-rack</text><line x1="1340" y1="455" x2="1340" y2="478" stroke="#2A7F8F" stroke-width="1.5"/><path d="M1336 476 1344 476 1340 485Z" fill="#2A7F8F"/><rect x="1200" y="485" rx="8" ry="8" width="280" height="45" stroke="#2A7F8F" stroke-width="1" fill="#FFFFFF"/><text fill="#333333" font-family="Arial,Arial" font-weight="700" font-size="13" text-anchor="middle" x="1340" y="503">Chilled Water / DX Plant</text><text fill="#555555" font-family="Arial,Arial" font-size="11" text-anchor="middle" x="1340" y="520">Chillers, pumps &amp; heat exchangers</text><line x1="1340" y1="530" x2="1340" y2="553" stroke="#2A7F8F" stroke-width="1.5"/><path d="M1336 551 1344 551 1340 560Z" fill="#2A7F8F"/><rect x="1200" y="560" rx="8" ry="8" width="280" height="45" stroke="#2A7F8F" stroke-width="1" fill="#FFFFFF"/><text fill="#333333" font-family="Arial,Arial" font-weight="700" font-size="13" text-anchor="middle" x="1340" y="578">Heat Rejection</text><text fill="#555555" font-family="Arial,Arial" font-size="11" text-anchor="middle" x="1340" y="595">Cooling towers &amp; dry coolers</text></g><g id="centre-it-load"><rect x="540" y="320" rx="12" ry="12" width="520" height="280" stroke="#0F4761" stroke-width="3" fill="#DCE6EF"/><text fill="#0F4761" font-family="Arial,Arial" font-weight="700" font-size="24" text-anchor="middle" x="800" y="360">IT Load / Server Racks</text><g transform="translate(575 405)"><rect x="0" y="0" rx="6" ry="6" width="85" height="135" stroke="#0F4761" stroke-width="1.5" fill="#FFFFFF"/><rect x="0" y="0" rx="6" ry="6" width="85" height="15" fill="#0F4761"/><rect x="0" y="10" width="85" height="5" fill="#0F4761"/><g transform="translate(8 25)"><rect x="0" y="0" rx="2" ry="2" width="69" height="12" stroke="#6A6A6A" stroke-width="0.75" fill="#E9EEF3"/><circle cx="8" cy="6" r="2.5" fill="#4CAF50"/><rect x="0" y="18" rx="2" ry="2" width="69" height="12" stroke="#6A6A6A" stroke-width="0.75" fill="#E9EEF3"/><circle cx="8" cy="24" r="2.5" fill="#4CAF50"/><rect x="0" y="36" rx="2" ry="2" width="69" height="12" stroke="#6A6A6A" stroke-width="0.75" fill="#E9EEF3"/><circle cx="8" cy="42" r="2.5" fill="#FF9800"/><rect x="0" y="54" rx="2" ry="2" width="69" height="12" stroke="#6A6A6A" stroke-width="0.75" fill="#E9EEF3"/><circle cx="8" cy="60" r="2.5" fill="#4CAF50"/><rect x="0" y="72" rx="2" ry="2" width="69" height="12" stroke="#6A6A6A" stroke-width="0.75" fill="#E9EEF3"/><circle cx="8" cy="78" r="2.5" fill="#4CAF50"/></g></g><g transform="translate(675 405)"><rect x="0" y="0" rx="6" ry="6" width="85" height="135" stroke="#0F4761" stroke-width="1.5" fill="#FFFFFF"/><rect x="0" y="0" rx="6" ry="6" width="85" height="15" fill="#0F4761"/><rect x="0" y="10" width="85" height="5" fill="#0F4761"/><g transform="translate(8 25)"><rect x="0" y="0" rx="2" ry="2" width="69" height="12" stroke="#6A6A6A" stroke-width="0.75" fill="#E9EEF3"/><circle cx="8" cy="6" r="2.5" fill="#4CAF50"/><rect x="0" y="18" rx="2" ry="2" width="69" height="12" stroke="#6A6A6A" stroke-width="0.75" fill="#E9EEF3"/><circle cx="8" cy="24" r="2.5" fill="#4CAF50"/><rect x="0" y="36" rx="2" ry="2" width="69" height="12" stroke="#6A6A6A" stroke-width="0.75" fill="#E9EEF3"/><circle cx="8" cy="42" r="2.5" fill="#4CAF50"/><rect x="0" y="54" rx="2" ry="2" width="69" height="12" stroke="#6A6A6A" stroke-width="0.75" fill="#E9EEF3"/><circle cx="8" cy="60" r="2.5" fill="#4CAF50"/><rect x="0" y="72" rx="2" ry="2" width="69" height="12" stroke="#6A6A6A" stroke-width="0.75" fill="#E9EEF3"/><circle cx="8" cy="78" r="2.5" fill="#4CAF50"/></g></g><g transform="translate(780 425)"><circle cx="10" cy="12" r="4.5" fill="#0F4761"/><text fill="#333333" font-family="Arial,Arial" font-weight="700" font-size="14" x="25" y="17">High-density compute load</text><text fill="#555555" font-family="Arial,Arial" font-size="11" x="25" y="34">High energy intensity</text><circle cx="10" cy="62" r="4.5" fill="#0F4761"/><text fill="#333333" font-family="Arial,Arial" font-weight="700" font-size="14" x="25" y="67">Continuous power and cooling</text><text fill="#555555" font-family="Arial,Arial" font-size="11" x="25" y="84">Requires resilience and high availability</text></g></g><g id="power-to-it-flow"><line x1="400" y1="594.5" x2="532" y2="594.5" stroke="#1F5D7A" stroke-width="3.5"/><path d="M532 589.5 532 599.5 540 594.5Z" fill="#1F5D7A"/><text fill="#1F5D7A" font-family="Arial,Arial" font-weight="700" font-size="14" text-anchor="middle" x="490" y="578">Power flow</text></g><g id="it-to-cooling-flow"><line x1="1060" y1="357.5" x2="1192" y2="357.5" stroke="#2A7F8F" stroke-width="3.5"/><path d="M1192 352.5 1192 362.5 1200 357.5Z" fill="#2A7F8F"/><text fill="#2A7F8F" font-family="Arial,Arial" font-weight="700" font-size="14" text-anchor="middle" x="1110" y="342.5">Heat out</text></g><g id="cooling-to-it-flow"><line x1="1200" y1="432.5" x2="1068" y2="432.5" stroke="#2A7F8F" stroke-width="3.5"/><path d="M1068 427.5 1068 437.5 1060 432.5Z" fill="#2A7F8F"/><text fill="#2A7F8F" font-family="Arial,Arial" font-weight="700" font-size="14" text-anchor="middle" x="1110" y="452.5">Cooling in</text></g><g id="controls-it-feedback"><line x1="800" y1="240" x2="800" y2="312" stroke="#6A6A6A" stroke-width="2" stroke-dasharray="6 4"/><path d="M796 248 804 248 800 240Z" fill="#6A6A6A"/><path d="M796 312 804 312 800 320Z" fill="#6A6A6A"/><text fill="#6A6A6A" font-family="Arial,Arial" font-weight="700" font-size="14" text-anchor="start" x="815" y="285">Monitoring and control feedback</text></g><g id="central-to-bottom-flow"><line x1="800" y1="600" x2="800" y2="645" stroke="#0F4761" stroke-width="3.5"/><text fill="#0F4761" font-family="Arial,Arial" font-weight="700" font-size="18" text-anchor="middle" x="800" y="672">Successful delivery depends on</text><text fill="#333333" font-family="Arial,Arial" font-size="15" text-anchor="middle" x="800" y="695">coordinated power, cooling, controls, access and commissioning</text><line x1="800" y1="715" x2="800" y2="791" stroke="#0F4761" stroke-width="3.5"/><path d="M794 789 806 789 800 800Z" fill="#0F4761"/></g><g id="construction-strip"><rect x="120" y="800" rx="12" ry="12" width="1360" height="120" stroke="#0F4761" stroke-width="1.5" fill="#E9EEF3"/><text fill="#0F4761" font-family="Arial,Arial" font-weight="700" font-size="18" text-anchor="start" x="140" y="827">Why this matters for construction professionals</text><rect x="140" y="845" rx="8" ry="8" width="300" height="55" stroke="#0F4761" stroke-width="1" fill="#FFFFFF"/><text fill="#0F4761" font-family="Arial,Arial" font-weight="700" font-size="14" text-anchor="middle" x="290" y="868">MEP Coordination</text><text fill="#333333" font-family="Arial,Arial" font-size="10.5" text-anchor="middle" x="290" y="887">Spatial routing &amp; clash avoidance</text><rect x="480" y="845" rx="8" ry="8" width="300" height="55" stroke="#0F4761" stroke-width="1" fill="#FFFFFF"/><text fill="#0F4761" font-family="Arial,Arial" font-weight="700" font-size="14" text-anchor="middle" x="630" y="868">Interface Management</text><text fill="#333333" font-family="Arial,Arial" font-size="10.5" text-anchor="middle" x="630" y="887">Power, cooling, &amp; control connections</text><rect x="820" y="845" rx="8" ry="8" width="300" height="55" stroke="#0F4761" stroke-width="1" fill="#FFFFFF"/><text fill="#0F4761" font-family="Arial,Arial" font-weight="700" font-size="14" text-anchor="middle" x="970" y="868">Commissioning Readiness</text><text fill="#333333" font-family="Arial,Arial" font-size="10.5" text-anchor="middle" x="970" y="887">System testing, validation &amp; handoff</text><rect x="1160" y="845" rx="8" ry="8" width="300" height="55" stroke="#0F4761" stroke-width="1" fill="#FFFFFF"/><text fill="#0F4761" font-family="Arial,Arial" font-weight="700" font-size="14" text-anchor="middle" x="1310" y="868">Maintainable Access</text><text fill="#333333" font-family="Arial,Arial" font-size="10.5" text-anchor="middle" x="1310" y="887">Clearances for equipment lifecycle</text></g></svg>