<svg width="1600" height="900" viewBox="0 0 1600 900" xmlns="http://www.w3.org/2000/svg" xmlns:xlink="http://www.w3.org/1999/xlink" overflow="hidden"><defs><marker refX="6" refY="5" markerWidth="6" markerHeight="6" markerUnits="strokeWidth" orient="auto-start-reverse" viewBox="0 0 10 10" id="arrow-head" overflow="hidden"><path d="M0 1.5 10 5 0 8.5Z" fill="#000F46"/></marker><marker refX="6" refY="5" markerWidth="6" markerHeight="6" markerUnits="strokeWidth" orient="auto-start-reverse" viewBox="0 0 10 10" id="arrow-blue" overflow="hidden"><path d="M0 1.5 10 5 0 8.5Z" fill="#46C8F0"/></marker><marker refX="6" refY="5" markerWidth="6" markerHeight="6" markerUnits="strokeWidth" orient="auto-start-reverse" viewBox="0 0 10 10" id="arrow-red" overflow="hidden"><path d="M0 1.5 10 5 0 8.5Z" fill="#E05A47"/></marker></defs><rect x="0" y="0" width="1600" height="900" fill="#FFFFFF"/><g id="card-1"><rect x="125" y="120" rx="12" ry="12" width="300" height="450" stroke="#000F46" stroke-width="1.5" fill="#F7F9FA"/><path d="M125 132C125 125.373 130.373 120 137 120L413 120C419.627 120 425 125.373 425 132L425 170 125 170Z" fill="#000F46"/><text fill="#FFFFFF" font-family="Arial,Arial" font-weight="700" font-size="18" text-anchor="middle" x="275" y="152">5–10 kW / rack</text><g id="rack-air"><rect x="245" y="190" rx="3" ry="3" width="60" height="120" stroke="#333333" stroke-width="2" fill="#EAEAEA"/><line x1="250" y1="202" x2="300" y2="202" stroke="#7F8C8D" stroke-width="1.5"/><line x1="250" y1="214" x2="300" y2="214" stroke="#7F8C8D" stroke-width="1.5"/><line x1="250" y1="226" x2="300" y2="226" stroke="#7F8C8D" stroke-width="1.5"/><line x1="250" y1="238" x2="300" y2="238" stroke="#7F8C8D" stroke-width="1.5"/><line x1="250" y1="250" x2="300" y2="250" stroke="#7F8C8D" stroke-width="1.5"/><line x1="250" y1="262" x2="300" y2="262" stroke="#7F8C8D" stroke-width="1.5"/><line x1="250" y1="274" x2="300" y2="274" stroke="#7F8C8D" stroke-width="1.5"/><line x1="250" y1="286" x2="300" y2="286" stroke="#7F8C8D" stroke-width="1.5"/><line x1="250" y1="298" x2="300" y2="298" stroke="#7F8C8D" stroke-width="1.5"/><circle cx="254" cy="202" r="1.5" fill="#2ECC71"/><circle cx="254" cy="226" r="1.5" fill="#2ECC71"/><circle cx="254" cy="250" r="1.5" fill="#2ECC71"/><circle cx="254" cy="274" r="1.5" fill="#2ECC71"/><circle cx="254" cy="298" r="1.5" fill="#2ECC71"/><line x1="175" y1="215" x2="235" y2="215" stroke="#46C8F0" stroke-width="2.5" stroke-linecap="round" marker-end="url(#arrow-blue)"/><line x1="175" y1="250" x2="235" y2="250" stroke="#46C8F0" stroke-width="2.5" stroke-linecap="round" marker-end="url(#arrow-blue)"/><line x1="175" y1="285" x2="235" y2="285" stroke="#46C8F0" stroke-width="2.5" stroke-linecap="round" marker-end="url(#arrow-blue)"/><line x1="315" y1="215" x2="365" y2="215" stroke="#E05A47" stroke-width="2.5" stroke-linecap="round" marker-end="url(#arrow-red)"/><line x1="315" y1="250" x2="365" y2="250" stroke="#E05A47" stroke-width="2.5" stroke-linecap="round" marker-end="url(#arrow-red)"/><line x1="315" y1="285" x2="365" y2="285" stroke="#E05A47" stroke-width="2.5" stroke-linecap="round" marker-end="url(#arrow-red)"/></g><text fill="#000F46" font-family="Georgia,Times New Roman" font-weight="700" font-size="18" text-anchor="middle" x="275" y="360">Conventional Air Cooling</text><text fill="#333333" font-family="Arial,Arial" font-size="14" text-anchor="middle" x="275" y="405">Standard hot/cold aisle</text><text fill="#333333" font-family="Arial,Arial" font-size="14" text-anchor="middle" x="275" y="425">containment is feasible for</text><text fill="#333333" font-family="Arial,Arial" font-size="14" text-anchor="middle" x="275" y="445">typical enterprise workloads.</text></g><g id="card-2"><rect x="475" y="120" rx="12" ry="12" width="300" height="450" stroke="#000F46" stroke-width="1.5" fill="#F7F9FA"/><path d="M475 132C475 125.373 480.373 120 487 120L763 120C769.627 120 775 125.373 775 132L775 170 475 170Z" fill="#000F46"/><text fill="#FFFFFF" font-family="Arial,Arial" font-weight="700" font-size="18" text-anchor="middle" x="625" y="152">20–25 kW / rack</text><g id="rack-stress"><rect x="595" y="190" rx="3" ry="3" width="60" height="120" stroke="#333333" stroke-width="2" fill="#EAEAEA"/><line x1="600" y1="202" x2="650" y2="202" stroke="#7F8C8D" stroke-width="1.5"/><line x1="600" y1="214" x2="650" y2="214" stroke="#7F8C8D" stroke-width="1.5"/><line x1="600" y1="226" x2="650" y2="226" stroke="#7F8C8D" stroke-width="1.5"/><line x1="600" y1="238" x2="650" y2="238" stroke="#7F8C8D" stroke-width="1.5"/><line x1="600" y1="250" x2="650" y2="250" stroke="#7F8C8D" stroke-width="1.5"/><line x1="600" y1="262" x2="650" y2="262" stroke="#7F8C8D" stroke-width="1.5"/><line x1="600" y1="274" x2="650" y2="274" stroke="#7F8C8D" stroke-width="1.5"/><line x1="600" y1="286" x2="650" y2="286" stroke="#7F8C8D" stroke-width="1.5"/><line x1="600" y1="298" x2="650" y2="298" stroke="#7F8C8D" stroke-width="1.5"/><circle cx="604" cy="202" r="1.5" fill="#E67E22"/><circle cx="604" cy="226" r="1.5" fill="#E74C3C"/><circle cx="604" cy="250" r="1.5" fill="#E67E22"/><circle cx="604" cy="274" r="1.5" fill="#E74C3C"/><circle cx="604" cy="298" r="1.5" fill="#E67E22"/><line x1="535" y1="220" x2="585" y2="220" stroke="#46C8F0" stroke-width="2" stroke-linecap="round" marker-end="url(#arrow-blue)"/><line x1="535" y1="280" x2="585" y2="280" stroke="#46C8F0" stroke-width="2" stroke-linecap="round" marker-end="url(#arrow-blue)"/><path d="M660 210C695 200 695 155 625 155 570 155 565 180 582 195" stroke="#E05A47" stroke-width="2" stroke-linecap="round" stroke-dasharray="2 2" fill="none" marker-end="url(#arrow-red)"/><path d="M660 280C695 290 695 335 625 335 570 335 565 310 582 295" stroke="#E05A47" stroke-width="2" stroke-linecap="round" stroke-dasharray="2 2" fill="none" marker-end="url(#arrow-red)"/><path d="M625 227 638 250 612 250Z" stroke="#333333" stroke-width="1" fill="#E67E22"/><text fill="#FFFFFF" font-family="Arial" font-weight="700" font-size="11" text-anchor="middle" x="625" y="247">!</text></g><text fill="#000F46" font-family="Georgia,Times New Roman" font-weight="700" font-size="18" text-anchor="middle" x="625" y="360">Air-Cooling Stress Zone</text><text fill="#333333" font-family="Arial,Arial" font-size="14" text-anchor="middle" x="625" y="405">Elevated risk of hot spots,</text><text fill="#333333" font-family="Arial,Arial" font-size="14" text-anchor="middle" x="625" y="425">recirculation, bypass airflow,</text><text fill="#333333" font-family="Arial,Arial" font-size="14" text-anchor="middle" x="625" y="445">and overall thermal stress.</text></g><g id="card-3"><rect x="825" y="120" rx="12" ry="12" width="300" height="450" stroke="#000F46" stroke-width="1.5" fill="#F7F9FA"/><path d="M825 132C825 125.373 830.373 120 837 120L1113 120C1119.63 120 1125 125.373 1125 132L1125 170 825 170Z" fill="#000F46"/><text fill="#FFFFFF" font-family="Arial,Arial" font-weight="700" font-size="18" text-anchor="middle" x="975" y="152">25–90 kW / rack</text><g id="rack-direct"><rect x="945" y="190" rx="3" ry="3" width="60" height="120" stroke="#333333" stroke-width="2" fill="#EAEAEA"/><line x1="935" y1="180" x2="935" y2="300" stroke="#46C8F0" stroke-width="3" stroke-linecap="round"/><line x1="1015" y1="180" x2="1015" y2="300" stroke="#E05A47" stroke-width="3" stroke-linecap="round"/><rect x="950" y="200" width="50" height="18" stroke="#7F8C8D" stroke-width="1" fill="#FFFFFF"/><rect x="967" y="205" rx="1" width="16" height="8" fill="#D35400"/><line x1="935" y1="209" x2="967" y2="209" stroke="#46C8F0" stroke-width="1.5"/><line x1="983" y1="209" x2="1015" y2="209" stroke="#E05A47" stroke-width="1.5"/><rect x="950" y="230" width="50" height="18" stroke="#7F8C8D" stroke-width="1" fill="#FFFFFF"/><rect x="967" y="235" rx="1" width="16" height="8" fill="#D35400"/><line x1="935" y1="239" x2="967" y2="239" stroke="#46C8F0" stroke-width="1.5"/><line x1="983" y1="239" x2="1015" y2="239" stroke="#E05A47" stroke-width="1.5"/><rect x="950" y="260" width="50" height="18" stroke="#7F8C8D" stroke-width="1" fill="#FFFFFF"/><rect x="967" y="265" rx="1" width="16" height="8" fill="#D35400"/><line x1="935" y1="269" x2="967" y2="269" stroke="#46C8F0" stroke-width="1.5"/><line x1="983" y1="269" x2="1015" y2="269" stroke="#E05A47" stroke-width="1.5"/><line x1="935" y1="315" x2="935" y2="305" stroke="#46C8F0" stroke-width="2" stroke-linecap="round" marker-end="url(#arrow-blue)"/><line x1="1015" y1="305" x2="1015" y2="315" stroke="#E05A47" stroke-width="2" stroke-linecap="round" marker-end="url(#arrow-red)"/></g><text fill="#000F46" font-family="Georgia,Times New Roman" font-weight="700" font-size="18" text-anchor="middle" x="975" y="360">Direct-to-Chip Cooling</text><text fill="#333333" font-family="Arial,Arial" font-size="14" text-anchor="middle" x="975" y="405">Pipes coolant directly to</text><text fill="#333333" font-family="Arial,Arial" font-size="14" text-anchor="middle" x="975" y="425">server cold plates. Requires leak</text><text fill="#333333" font-family="Arial,Arial" font-size="14" text-anchor="middle" x="975" y="445">controls and fluid distribution.</text></g><g id="card-4"><rect x="1175" y="120" rx="12" ry="12" width="300" height="450" stroke="#000F46" stroke-width="1.5" fill="#F7F9FA"/><path d="M1175 132C1175 125.373 1180.37 120 1187 120L1463 120C1469.63 120 1475 125.373 1475 132L1475 170 1175 170Z" fill="#000F46"/><text fill="#FFFFFF" font-family="Arial,Arial" font-weight="700" font-size="18" text-anchor="middle" x="1325" y="152">50–100+ kW / rack</text><g id="rack-immersion"><rect x="1265" y="195" rx="6" ry="6" width="120" height="110" stroke="#333333" stroke-width="2" fill="#FFFFFF"/><rect x="1268" y="215" rx="3" width="114" height="87" fill="#46C8F0" opacity="0.25"/><line x1="1268" y1="215" x2="1382" y2="215" stroke="#46C8F0" stroke-width="2"/><rect x="1278" y="222" rx="1" width="10" height="65" stroke="#555555" stroke-width="1" fill="#95A5A6"/><rect x="1294" y="222" rx="1" width="10" height="65" stroke="#555555" stroke-width="1" fill="#95A5A6"/><rect x="1310" y="222" rx="1" width="10" height="65" stroke="#555555" stroke-width="1" fill="#95A5A6"/><rect x="1326" y="222" rx="1" width="10" height="65" stroke="#555555" stroke-width="1" fill="#95A5A6"/><rect x="1342" y="222" rx="1" width="10" height="65" stroke="#555555" stroke-width="1" fill="#95A5A6"/><rect x="1358" y="222" rx="1" width="10" height="65" stroke="#555555" stroke-width="1" fill="#95A5A6"/><circle cx="1283" cy="227" r="1.5" fill="#2ECC71"/><circle cx="1299" cy="227" r="1.5" fill="#2ECC71"/><circle cx="1315" cy="227" r="1.5" fill="#2ECC71"/><circle cx="1331" cy="227" r="1.5" fill="#2ECC71"/><circle cx="1347" cy="227" r="1.5" fill="#2ECC71"/><circle cx="1363" cy="227" r="1.5" fill="#2ECC71"/><path d="M1385 230 1415 230 1415 245" stroke="#E05A47" stroke-width="2" fill="none"/><circle cx="1415" cy="255" r="10" stroke="#333333" stroke-width="1.5" fill="#FFFFFF"/><path d="M1412 255 1418 255M1415 252 1415 258" stroke="#333333" stroke-width="1.5"/><path d="M1415 265 1415 280 1385 280" stroke="#46C8F0" stroke-width="2" fill="none"/><line x1="1415" y1="235" x2="1415" y2="240" stroke="#E05A47" stroke-width="1" marker-end="url(#arrow-red)"/><line x1="1415" y1="275" x2="1415" y2="270" stroke="#46C8F0" stroke-width="1" marker-end="url(#arrow-blue)"/></g><text fill="#000F46" font-family="Georgia,Times New Roman" font-weight="700" font-size="18" text-anchor="middle" x="1325" y="360">Immersion Cooling</text><text fill="#333333" font-family="Arial,Arial" font-size="14" text-anchor="middle" x="1325" y="405">Servers fully submerged in</text><text fill="#333333" font-family="Arial,Arial" font-size="14" text-anchor="middle" x="1325" y="425">dielectric fluid. Significant spatial</text><text fill="#333333" font-family="Arial,Arial" font-size="14" text-anchor="middle" x="1325" y="445">and structural load impacts.</text></g><g id="axis-group"><line x1="125" y1="640" x2="1475" y2="640" stroke="#000F46" stroke-width="3" stroke-linecap="round" marker-end="url(#arrow-head)"/><line x1="275" y1="635" x2="275" y2="645" stroke="#000F46" stroke-width="2"/><text fill="#000F46" font-family="Arial,Arial" font-weight="700" font-size="16" text-anchor="middle" x="275" y="615">5–10 kW/rack</text><line x1="625" y1="635" x2="625" y2="645" stroke="#000F46" stroke-width="2"/><text fill="#000F46" font-family="Arial,Arial" font-weight="700" font-size="16" text-anchor="middle" x="625" y="615">20–25 kW/rack</text><line x1="975" y1="635" x2="975" y2="645" stroke="#000F46" stroke-width="2"/><text fill="#000F46" font-family="Arial,Arial" font-weight="700" font-size="16" text-anchor="middle" x="975" y="615">25–90 kW/rack</text><line x1="1325" y1="635" x2="1325" y2="645" stroke="#000F46" stroke-width="2"/><text fill="#000F46" font-family="Arial,Arial" font-weight="700" font-size="16" text-anchor="middle" x="1325" y="615">50–100+ kW/rack</text><text fill="#000F46" font-family="Arial,Arial" font-weight="700" font-size="20" text-anchor="middle" x="800" y="695">Rack IT Power Density (kW per rack)</text></g><text fill="#666666" font-family="Arial,Arial" font-size="13" text-anchor="middle" x="800" y="770">Note: Ranges are indicative. Actual cooling limits vary based on room containment, server configuration, external climate, redundancy, and operational risk tolerance.</text></svg>