<svg width="1600" height="920" viewBox="0 0 1600 920" xmlns="http://www.w3.org/2000/svg" xmlns:xlink="http://www.w3.org/1999/xlink" overflow="hidden"><defs><pattern width="8" height="8" patternUnits="userSpaceOnUse" id="rack-mesh" overflow="hidden"><circle cx="4" cy="4" r="1.5" fill="#7F8C8D" opacity="0.25"/></pattern><marker refX="5" refY="5" markerWidth="6" markerHeight="6" markerUnits="strokeWidth" orient="auto-start-reverse" viewBox="0 0 10 10" id="arrow" overflow="hidden"><path d="M0 1.5 10 5 0 8.5Z" fill="#000F46"/></marker><marker refX="5" refY="5" markerWidth="6" markerHeight="6" markerUnits="strokeWidth" orient="auto-start-reverse" viewBox="0 0 10 10" id="arrow-grey" overflow="hidden"><path d="M0 1.5 10 5 0 8.5Z" fill="#7F8C8D"/></marker></defs><rect x="0" y="0" width="1600" height="920" fill="#FFFFFF"/><line x1="100" y1="750" x2="1500" y2="750" stroke="#7F8C8D" stroke-width="1.5" stroke-dasharray="4 4"/><text fill="#7F8C8D" font-family="Arial,Arial" font-size="12" text-anchor="start" x="100" y="770">Data Centre Floor Baseline</text><g id="front-view"><text fill="#000F46" font-family="Arial,Arial" font-weight="700" font-size="18" x="405" y="772">Front View</text><rect x="363" y="170" width="174" height="20" stroke="#000F46" stroke-width="2" fill="#DCE6EF"/><rect x="363" y="730" width="174" height="20" stroke="#000F46" stroke-width="2" fill="#DCE6EF"/><rect x="363" y="190" width="17" height="540" stroke="#000F46" stroke-width="2" fill="#DCE6EF"/><rect x="520" y="190" width="17" height="540" stroke="#000F46" stroke-width="2" fill="#DCE6EF"/><rect x="380" y="190" width="140" height="540" fill="#F7F9FA"/><rect x="388" y="190" width="124" height="540" fill="url(#rack-mesh)"/><rect x="380" y="190" width="8" height="540" stroke="#7F8C8D" stroke-width="1" fill="#C8C8C8"/><rect x="512" y="190" width="8" height="540" stroke="#7F8C8D" stroke-width="1" fill="#C8C8C8"/><line x1="380" y1="190" x2="386" y2="190" stroke="#7F8C8D" stroke-width="0.75"/><line x1="514" y1="190" x2="520" y2="190" stroke="#7F8C8D" stroke-width="0.75"/><line x1="380" y1="202.86" x2="386" y2="202.86" stroke="#7F8C8D" stroke-width="0.75"/><line x1="514" y1="202.86" x2="520" y2="202.86" stroke="#7F8C8D" stroke-width="0.75"/><line x1="380" y1="215.71" x2="386" y2="215.71" stroke="#7F8C8D" stroke-width="0.75"/><line x1="514" y1="215.71" x2="520" y2="215.71" stroke="#7F8C8D" stroke-width="0.75"/><line x1="380" y1="228.57" x2="386" y2="228.57" stroke="#7F8C8D" stroke-width="0.75"/><line x1="514" y1="228.57" x2="520" y2="228.57" stroke="#7F8C8D" stroke-width="0.75"/><line x1="380" y1="241.43" x2="386" y2="241.43" stroke="#7F8C8D" stroke-width="0.75"/><line x1="514" y1="241.43" x2="520" y2="241.43" stroke="#7F8C8D" stroke-width="0.75"/><line x1="380" y1="254.29" x2="386" y2="254.29" stroke="#7F8C8D" stroke-width="0.75"/><line x1="514" y1="254.29" x2="520" y2="254.29" stroke="#7F8C8D" stroke-width="0.75"/><line x1="380" y1="267.14" x2="386" y2="267.14" stroke="#7F8C8D" stroke-width="0.75"/><line x1="514" y1="267.14" x2="520" y2="267.14" stroke="#7F8C8D" stroke-width="0.75"/><line x1="380" y1="280" x2="386" y2="280" stroke="#7F8C8D" stroke-width="0.75"/><line x1="514" y1="280" x2="520" y2="280" stroke="#7F8C8D" stroke-width="0.75"/><line x1="380" y1="292.86" x2="386" y2="292.86" stroke="#7F8C8D" stroke-width="0.75"/><line x1="514" y1="292.86" x2="520" y2="292.86" stroke="#7F8C8D" stroke-width="0.75"/><line x1="380" y1="305.71" x2="386" y2="305.71" stroke="#7F8C8D" stroke-width="0.75"/><line x1="514" y1="305.71" x2="520" y2="305.71" stroke="#7F8C8D" stroke-width="0.75"/><line x1="380" y1="318.57" x2="386" y2="318.57" stroke="#7F8C8D" stroke-width="0.75"/><line x1="514" y1="318.57" x2="520" y2="318.57" stroke="#7F8C8D" stroke-width="0.75"/><line x1="380" y1="331.43" x2="386" y2="331.43" stroke="#7F8C8D" stroke-width="0.75"/><line x1="514" y1="331.43" x2="520" y2="331.43" stroke="#7F8C8D" stroke-width="0.75"/><line x1="380" y1="344.29" x2="386" y2="344.29" stroke="#7F8C8D" stroke-width="0.75"/><line x1="514" y1="344.29" x2="520" y2="344.29" stroke="#7F8C8D" stroke-width="0.75"/><line x1="380" y1="357.14" x2="386" y2="357.14" stroke="#7F8C8D" stroke-width="0.75"/><line x1="514" y1="357.14" x2="520" y2="357.14" stroke="#7F8C8D" stroke-width="0.75"/><line x1="380" y1="370" x2="386" y2="370" stroke="#7F8C8D" stroke-width="0.75"/><line x1="514" y1="370" x2="520" y2="370" stroke="#7F8C8D" stroke-width="0.75"/><line x1="380" y1="382.86" x2="386" y2="382.86" stroke="#7F8C8D" stroke-width="0.75"/><line x1="514" y1="382.86" x2="520" y2="382.86" stroke="#7F8C8D" stroke-width="0.75"/><line x1="380" y1="395.71" x2="386" y2="395.71" stroke="#7F8C8D" stroke-width="0.75"/><line x1="514" y1="395.71" x2="520" y2="395.71" stroke="#7F8C8D" stroke-width="0.75"/><line x1="380" y1="408.57" x2="386" y2="408.57" stroke="#7F8C8D" stroke-width="0.75"/><line x1="514" y1="408.57" x2="520" y2="408.57" stroke="#7F8C8D" stroke-width="0.75"/><line x1="380" y1="421.43" x2="386" y2="421.43" stroke="#7F8C8D" stroke-width="0.75"/><line x1="514" y1="421.43" x2="520" y2="421.43" stroke="#7F8C8D" stroke-width="0.75"/><line x1="380" y1="434.29" x2="386" y2="434.29" stroke="#7F8C8D" stroke-width="0.75"/><line x1="514" y1="434.29" x2="520" y2="434.29" stroke="#7F8C8D" stroke-width="0.75"/><line x1="380" y1="447.14" x2="386" y2="447.14" stroke="#7F8C8D" stroke-width="0.75"/><line x1="514" y1="447.14" x2="520" y2="447.14" stroke="#7F8C8D" stroke-width="0.75"/><line x1="380" y1="460" x2="386" y2="460" stroke="#7F8C8D" stroke-width="0.75"/><line x1="514" y1="460" x2="520" y2="460" stroke="#7F8C8D" stroke-width="0.75"/><line x1="380" y1="472.86" x2="386" y2="472.86" stroke="#7F8C8D" stroke-width="0.75"/><line x1="514" y1="472.86" x2="520" y2="472.86" stroke="#7F8C8D" stroke-width="0.75"/><line x1="380" y1="485.71" x2="386" y2="485.71" stroke="#7F8C8D" stroke-width="0.75"/><line x1="514" y1="485.71" x2="520" y2="485.71" stroke="#7F8C8D" stroke-width="0.75"/><line x1="380" y1="498.57" x2="386" y2="498.57" stroke="#7F8C8D" stroke-width="0.75"/><line x1="514" y1="498.57" x2="520" y2="498.57" stroke="#7F8C8D" stroke-width="0.75"/><line x1="380" y1="511.43" x2="386" y2="511.43" stroke="#7F8C8D" stroke-width="0.75"/><line x1="514" y1="511.43" x2="520" y2="511.43" stroke="#7F8C8D" stroke-width="0.75"/><line x1="380" y1="524.29" x2="386" y2="524.29" stroke="#7F8C8D" stroke-width="0.75"/><line x1="514" y1="524.29" x2="520" y2="524.29" stroke="#7F8C8D" stroke-width="0.75"/><line x1="380" y1="537.14" x2="386" y2="537.14" stroke="#7F8C8D" stroke-width="0.75"/><line x1="514" y1="537.14" x2="520" y2="537.14" stroke="#7F8C8D" stroke-width="0.75"/><line x1="380" y1="550" x2="386" y2="550" stroke="#7F8C8D" stroke-width="0.75"/><line x1="514" y1="550" x2="520" y2="550" stroke="#7F8C8D" stroke-width="0.75"/><line x1="380" y1="562.86" x2="386" y2="562.86" stroke="#7F8C8D" stroke-width="0.75"/><line x1="514" y1="562.86" x2="520" y2="562.86" stroke="#7F8C8D" stroke-width="0.75"/><line x1="380" y1="575.71" x2="386" y2="575.71" stroke="#7F8C8D" stroke-width="0.75"/><line x1="514" y1="575.71" x2="520" y2="575.71" stroke="#7F8C8D" stroke-width="0.75"/><line x1="380" y1="588.57" x2="386" y2="588.57" stroke="#7F8C8D" stroke-width="0.75"/><line x1="514" y1="588.57" x2="520" y2="588.57" stroke="#7F8C8D" stroke-width="0.75"/><line x1="380" y1="601.43" x2="386" y2="601.43" stroke="#7F8C8D" stroke-width="0.75"/><line x1="514" y1="601.43" x2="520" y2="601.43" stroke="#7F8C8D" stroke-width="0.75"/><line x1="380" y1="614.29" x2="386" y2="614.29" stroke="#7F8C8D" stroke-width="0.75"/><line x1="514" y1="614.29" x2="520" y2="614.29" stroke="#7F8C8D" stroke-width="0.75"/><line x1="380" y1="627.14" x2="386" y2="627.14" stroke="#7F8C8D" stroke-width="0.75"/><line x1="514" y1="627.14" x2="520" y2="627.14" stroke="#7F8C8D" stroke-width="0.75"/><line x1="380" y1="640" x2="386" y2="640" stroke="#7F8C8D" stroke-width="0.75"/><line x1="514" y1="640" x2="520" y2="640" stroke="#7F8C8D" stroke-width="0.75"/><line x1="380" y1="652.86" x2="386" y2="652.86" stroke="#7F8C8D" stroke-width="0.75"/><line x1="514" y1="652.86" x2="520" y2="652.86" stroke="#7F8C8D" stroke-width="0.75"/><line x1="380" y1="665.71" x2="386" y2="665.71" stroke="#7F8C8D" stroke-width="0.75"/><line x1="514" y1="665.71" x2="520" y2="665.71" stroke="#7F8C8D" stroke-width="0.75"/><line x1="380" y1="678.57" x2="386" y2="678.57" stroke="#7F8C8D" stroke-width="0.75"/><line x1="514" y1="678.57" x2="520" y2="678.57" stroke="#7F8C8D" stroke-width="0.75"/><line x1="380" y1="691.43" x2="386" y2="691.43" stroke="#7F8C8D" stroke-width="0.75"/><line x1="514" y1="691.43" x2="520" y2="691.43" stroke="#7F8C8D" stroke-width="0.75"/><line x1="380" y1="704.29" x2="386" y2="704.29" stroke="#7F8C8D" stroke-width="0.75"/><line x1="514" y1="704.29" x2="520" y2="704.29" stroke="#7F8C8D" stroke-width="0.75"/><line x1="380" y1="717.14" x2="386" y2="717.14" stroke="#7F8C8D" stroke-width="0.75"/><line x1="514" y1="717.14" x2="520" y2="717.14" stroke="#7F8C8D" stroke-width="0.75"/><line x1="380" y1="730" x2="386" y2="730" stroke="#7F8C8D" stroke-width="0.75"/><line x1="514" y1="730" x2="520" y2="730" stroke="#7F8C8D" stroke-width="0.75"/><line x1="386" y1="723.57" x2="514" y2="723.57" stroke="#EBEBEB" stroke-width="0.5"/><line x1="386" y1="466.43" x2="514" y2="466.43" stroke="#EBEBEB" stroke-width="0.5"/><line x1="386" y1="196.43" x2="514" y2="196.43" stroke="#EBEBEB" stroke-width="0.5"/><rect x="400" y="472.86" width="110" height="25.71" stroke="#000F46" stroke-width="1.5" fill="#FFFFFF"/><rect x="402" y="474.86" width="106" height="21.71" stroke="none" fill="#DCE6EF"/><circle cx="410" cy="485.71" r="2.5" fill="#9FB825"/><circle cx="418" cy="485.71" r="2.5" fill="#7F8C8D"/><text fill="#000F46" font-family="Arial,Arial" font-weight="700" font-size="12" x="428" y="490.5">2U example</text><rect x="400" y="460" width="110" height="12.86" stroke="#000F46" stroke-width="1.5" fill="#FFFFFF"/><rect x="402" y="462" width="106" height="8.86" stroke="none" fill="#EAEAEA"/><circle cx="410" cy="466.43" r="2" fill="#9FB825"/><text fill="#000F46" font-family="Arial,Arial" font-weight="700" font-size="10.5" x="428" y="469.5">1U example</text><text fill="#5A6769" font-family="Arial,Arial" font-weight="700" font-size="11" text-anchor="end" x="348" y="727.57">1U</text><text fill="#5A6769" font-family="Arial,Arial" font-weight="700" font-size="11" text-anchor="end" x="348" y="470.43">21U</text><text fill="#5A6769" font-family="Arial,Arial" font-weight="700" font-size="11" text-anchor="end" x="348" y="200.43">42U</text><line x1="363" y1="165" x2="363" y2="110" stroke="#7F8C8D" stroke-width="1"/><line x1="537" y1="165" x2="537" y2="110" stroke="#7F8C8D" stroke-width="1"/><line x1="363" y1="120" x2="537" y2="120" stroke="#000F46" stroke-width="1.5" marker-start="url(#arrow)" marker-end="url(#arrow)"/><text fill="#000F46" font-family="Arial,Arial" font-weight="700" font-size="16" x="360" y="110">Overall Width: 600 mm</text><line x1="358" y1="170" x2="230" y2="170" stroke="#7F8C8D" stroke-width="1"/><line x1="358" y1="750" x2="230" y2="750" stroke="#7F8C8D" stroke-width="1"/><line x1="240" y1="170" x2="240" y2="750" stroke="#000F46" stroke-width="1.5" marker-start="url(#arrow)" marker-end="url(#arrow)"/><text fill="#000F46" font-family="Arial,Arial" font-weight="700" font-size="16" x="30" y="465">Overall Height: 2000 mm</text><line x1="380" y1="330" x2="520" y2="330" stroke="#7F8C8D" stroke-width="1.2" marker-start="url(#arrow-grey)" marker-end="url(#arrow-grey)"/><rect x="387" y="288" rx="4" width="126" height="38" fill="#FFFFFF"/><text fill="#333333" font-family="Arial,Arial" font-weight="700" font-size="12" x="405" y="305">Mounting Width</text><text fill="#333333" font-family="Arial,Arial" font-weight="700" font-size="12" x="400" y="321">482.6 mm / 19 in</text><line x1="545" y1="434.29" x2="555" y2="434.29" stroke="#000F46" stroke-width="1.5"/><line x1="545" y1="447.14" x2="555" y2="447.14" stroke="#000F46" stroke-width="1.5"/><line x1="550" y1="434.29" x2="550" y2="447.14" stroke="#000F46" stroke-width="1.5"/><path d="M550 440.71 590 440.71" stroke="#000F46" stroke-width="1.2" fill="none"/><circle cx="550" cy="440.71" r="2.5" fill="#000F46"/><text fill="#333333" font-family="Arial,Arial" font-weight="700" font-size="14" text-anchor="start" x="597" y="445.28">1U = 44.45 mm</text></g><g id="side-view"><text fill="#000F46" font-family="Arial,Arial" font-weight="700" font-size="18" x="1055" y="772">Side View</text><rect x="955" y="170" width="290" height="20" stroke="#000F46" stroke-width="2" fill="#DCE6EF"/><rect x="955" y="730" width="290" height="20" stroke="#000F46" stroke-width="2" fill="#DCE6EF"/><rect x="955" y="190" width="15" height="540" stroke="#000F46" stroke-width="2" fill="#DCE6EF"/><rect x="1230" y="190" width="15" height="540" stroke="#000F46" stroke-width="2" fill="#DCE6EF"/><rect x="970" y="190" width="260" height="540" fill="#F7F9FA"/><line x1="970" y1="370" x2="1230" y2="370" stroke="#7F8C8D" stroke-width="1.5"/><line x1="970" y1="550" x2="1230" y2="550" stroke="#7F8C8D" stroke-width="1.5"/><rect x="985" y="190" width="10" height="540" stroke="#7F8C8D" stroke-width="1" fill="#C8C8C8"/><rect x="1205" y="190" width="10" height="540" stroke="#7F8C8D" stroke-width="1" fill="#C8C8C8"/><line x1="985" y1="190" x2="991" y2="190" stroke="#7F8C8D" stroke-width="0.75"/><line x1="985" y1="202.86" x2="991" y2="202.86" stroke="#7F8C8D" stroke-width="0.75"/><line x1="985" y1="215.71" x2="991" y2="215.71" stroke="#7F8C8D" stroke-width="0.75"/><line x1="985" y1="228.57" x2="991" y2="228.57" stroke="#7F8C8D" stroke-width="0.75"/><line x1="985" y1="241.43" x2="991" y2="241.43" stroke="#7F8C8D" stroke-width="0.75"/><line x1="985" y1="254.29" x2="991" y2="254.29" stroke="#7F8C8D" stroke-width="0.75"/><line x1="985" y1="267.14" x2="991" y2="267.14" stroke="#7F8C8D" stroke-width="0.75"/><line x1="985" y1="280" x2="991" y2="280" stroke="#7F8C8D" stroke-width="0.75"/><line x1="985" y1="292.86" x2="991" y2="292.86" stroke="#7F8C8D" stroke-width="0.75"/><line x1="985" y1="305.71" x2="991" y2="305.71" stroke="#7F8C8D" stroke-width="0.75"/><line x1="985" y1="318.57" x2="991" y2="318.57" stroke="#7F8C8D" stroke-width="0.75"/><line x1="985" y1="331.43" x2="991" y2="331.43" stroke="#7F8C8D" stroke-width="0.75"/><line x1="985" y1="344.29" x2="991" y2="344.29" stroke="#7F8C8D" stroke-width="0.75"/><line x1="985" y1="357.14" x2="991" y2="357.14" stroke="#7F8C8D" stroke-width="0.75"/><line x1="985" y1="370" x2="991" y2="370" stroke="#7F8C8D" stroke-width="0.75"/><line x1="985" y1="382.86" x2="991" y2="382.86" stroke="#7F8C8D" stroke-width="0.75"/><line x1="985" y1="395.71" x2="991" y2="395.71" stroke="#7F8C8D" stroke-width="0.75"/><line x1="985" y1="408.57" x2="991" y2="408.57" stroke="#7F8C8D" stroke-width="0.75"/><line x1="985" y1="421.43" x2="991" y2="421.43" stroke="#7F8C8D" stroke-width="0.75"/><line x1="985" y1="434.29" x2="991" y2="434.29" stroke="#7F8C8D" stroke-width="0.75"/><line x1="985" y1="447.14" x2="991" y2="447.14" stroke="#7F8C8D" stroke-width="0.75"/><line x1="985" y1="460" x2="991" y2="460" stroke="#7F8C8D" stroke-width="0.75"/><line x1="985" y1="472.86" x2="991" y2="472.86" stroke="#7F8C8D" stroke-width="0.75"/><line x1="985" y1="485.71" x2="991" y2="485.71" stroke="#7F8C8D" stroke-width="0.75"/><line x1="985" y1="498.57" x2="991" y2="498.57" stroke="#7F8C8D" stroke-width="0.75"/><line x1="985" y1="511.43" x2="991" y2="511.43" stroke="#7F8C8D" stroke-width="0.75"/><line x1="985" y1="524.29" x2="991" y2="524.29" stroke="#7F8C8D" stroke-width="0.75"/><line x1="985" y1="537.14" x2="991" y2="537.14" stroke="#7F8C8D" stroke-width="0.75"/><line x1="985" y1="550" x2="991" y2="550" stroke="#7F8C8D" stroke-width="0.75"/><line x1="985" y1="562.86" x2="991" y2="562.86" stroke="#7F8C8D" stroke-width="0.75"/><line x1="985" y1="575.71" x2="991" y2="575.71" stroke="#7F8C8D" stroke-width="0.75"/><line x1="985" y1="588.57" x2="991" y2="588.57" stroke="#7F8C8D" stroke-width="0.75"/><line x1="985" y1="601.43" x2="991" y2="601.43" stroke="#7F8C8D" stroke-width="0.75"/><line x1="985" y1="614.29" x2="991" y2="614.29" stroke="#7F8C8D" stroke-width="0.75"/><line x1="985" y1="627.14" x2="991" y2="627.14" stroke="#7F8C8D" stroke-width="0.75"/><line x1="985" y1="640" x2="991" y2="640" stroke="#7F8C8D" stroke-width="0.75"/><line x1="985" y1="652.86" x2="991" y2="652.86" stroke="#7F8C8D" stroke-width="0.75"/><line x1="985" y1="665.71" x2="991" y2="665.71" stroke="#7F8C8D" stroke-width="0.75"/><line x1="985" y1="678.57" x2="991" y2="678.57" stroke="#7F8C8D" stroke-width="0.75"/><line x1="985" y1="691.43" x2="991" y2="691.43" stroke="#7F8C8D" stroke-width="0.75"/><line x1="985" y1="704.29" x2="991" y2="704.29" stroke="#7F8C8D" stroke-width="0.75"/><line x1="985" y1="717.14" x2="991" y2="717.14" stroke="#7F8C8D" stroke-width="0.75"/><line x1="985" y1="730" x2="991" y2="730" stroke="#7F8C8D" stroke-width="0.75"/><line x1="1209" y1="190" x2="1215" y2="190" stroke="#7F8C8D" stroke-width="0.75"/><line x1="1209" y1="202.86" x2="1215" y2="202.86" stroke="#7F8C8D" stroke-width="0.75"/><line x1="1209" y1="215.71" x2="1215" y2="215.71" stroke="#7F8C8D" stroke-width="0.75"/><line x1="1209" y1="228.57" x2="1215" y2="228.57" stroke="#7F8C8D" stroke-width="0.75"/><line x1="1209" y1="241.43" x2="1215" y2="241.43" stroke="#7F8C8D" stroke-width="0.75"/><line x1="1209" y1="254.29" x2="1215" y2="254.29" stroke="#7F8C8D" stroke-width="0.75"/><line x1="1209" y1="267.14" x2="1215" y2="267.14" stroke="#7F8C8D" stroke-width="0.75"/><line x1="1209" y1="280" x2="1215" y2="280" stroke="#7F8C8D" stroke-width="0.75"/><line x1="1209" y1="292.86" x2="1215" y2="292.86" stroke="#7F8C8D" stroke-width="0.75"/><line x1="1209" y1="305.71" x2="1215" y2="305.71" stroke="#7F8C8D" stroke-width="0.75"/><line x1="1209" y1="318.57" x2="1215" y2="318.57" stroke="#7F8C8D" stroke-width="0.75"/><line x1="1209" y1="331.43" x2="1215" y2="331.43" stroke="#7F8C8D" stroke-width="0.75"/><line x1="1209" y1="344.29" x2="1215" y2="344.29" stroke="#7F8C8D" stroke-width="0.75"/><line x1="1209" y1="357.14" x2="1215" y2="357.14" stroke="#7F8C8D" stroke-width="0.75"/><line x1="1209" y1="370" x2="1215" y2="370" stroke="#7F8C8D" stroke-width="0.75"/><line x1="1209" y1="382.86" x2="1215" y2="382.86" stroke="#7F8C8D" stroke-width="0.75"/><line x1="1209" y1="395.71" x2="1215" y2="395.71" stroke="#7F8C8D" stroke-width="0.75"/><line x1="1209" y1="408.57" x2="1215" y2="408.57" stroke="#7F8C8D" stroke-width="0.75"/><line x1="1209" y1="421.43" x2="1215" y2="421.43" stroke="#7F8C8D" stroke-width="0.75"/><line x1="1209" y1="434.29" x2="1215" y2="434.29" stroke="#7F8C8D" stroke-width="0.75"/><line x1="1209" y1="447.14" x2="1215" y2="447.14" stroke="#7F8C8D" stroke-width="0.75"/><line x1="1209" y1="460" x2="1215" y2="460" stroke="#7F8C8D" stroke-width="0.75"/><line x1="1209" y1="472.86" x2="1215" y2="472.86" stroke="#7F8C8D" stroke-width="0.75"/><line x1="1209" y1="485.71" x2="1215" y2="485.71" stroke="#7F8C8D" stroke-width="0.75"/><line x1="1209" y1="498.57" x2="1215" y2="498.57" stroke="#7F8C8D" stroke-width="0.75"/><line x1="1209" y1="511.43" x2="1215" y2="511.43" stroke="#7F8C8D" stroke-width="0.75"/><line x1="1209" y1="524.29" x2="1215" y2="524.29" stroke="#7F8C8D" stroke-width="0.75"/><line x1="1209" y1="537.14" x2="1215" y2="537.14" stroke="#7F8C8D" stroke-width="0.75"/><line x1="1209" y1="550" x2="1215" y2="550" stroke="#7F8C8D" stroke-width="0.75"/><line x1="1209" y1="562.86" x2="1215" y2="562.86" stroke="#7F8C8D" stroke-width="0.75"/><line x1="1209" y1="575.71" x2="1215" y2="575.71" stroke="#7F8C8D" stroke-width="0.75"/><line x1="1209" y1="588.57" x2="1215" y2="588.57" stroke="#7F8C8D" stroke-width="0.75"/><line x1="1209" y1="601.43" x2="1215" y2="601.43" stroke="#7F8C8D" stroke-width="0.75"/><line x1="1209" y1="614.29" x2="1215" y2="614.29" stroke="#7F8C8D" stroke-width="0.75"/><line x1="1209" y1="627.14" x2="1215" y2="627.14" stroke="#7F8C8D" stroke-width="0.75"/><line x1="1209" y1="640" x2="1215" y2="640" stroke="#7F8C8D" stroke-width="0.75"/><line x1="1209" y1="652.86" x2="1215" y2="652.86" stroke="#7F8C8D" stroke-width="0.75"/><line x1="1209" y1="665.71" x2="1215" y2="665.71" stroke="#7F8C8D" stroke-width="0.75"/><line x1="1209" y1="678.57" x2="1215" y2="678.57" stroke="#7F8C8D" stroke-width="0.75"/><line x1="1209" y1="691.43" x2="1215" y2="691.43" stroke="#7F8C8D" stroke-width="0.75"/><line x1="1209" y1="704.29" x2="1215" y2="704.29" stroke="#7F8C8D" stroke-width="0.75"/><line x1="1209" y1="717.14" x2="1215" y2="717.14" stroke="#7F8C8D" stroke-width="0.75"/><line x1="1209" y1="730" x2="1215" y2="730" stroke="#7F8C8D" stroke-width="0.75"/><line x1="955" y1="165" x2="955" y2="110" stroke="#7F8C8D" stroke-width="1"/><line x1="1245" y1="165" x2="1245" y2="110" stroke="#7F8C8D" stroke-width="1"/><line x1="955" y1="120" x2="1245" y2="120" stroke="#000F46" stroke-width="1.5" marker-start="url(#arrow)" marker-end="url(#arrow)"/><text fill="#000F46" font-family="Arial,Arial" font-weight="700" font-size="16" x="1010" y="110">Overall Depth: 1000 mm</text><line x1="1245" y1="190" x2="1305" y2="190" stroke="#7F8C8D" stroke-width="1"/><line x1="1245" y1="730" x2="1305" y2="730" stroke="#7F8C8D" stroke-width="1"/><line x1="1290" y1="190" x2="1290" y2="730" stroke="#7F8C8D" stroke-width="1.5" marker-start="url(#arrow-grey)" marker-end="url(#arrow-grey)"/><rect x="1320" y="410" rx="8" width="230" height="80" stroke="#000F46" stroke-width="1.5" fill="#DCE6EF"/><text fill="#000F46" font-family="Arial,Arial" font-weight="700" font-size="14" x="1355" y="440">Usable Mounting Height</text><text fill="#333333" font-family="Arial,Arial" font-weight="700" font-size="18" x="1370" y="470">42U = 1866.9 mm</text><line x1="1320" y1="450" x2="1290" y2="450" stroke="#7F8C8D" stroke-width="1.5"/><circle cx="1290" cy="450" r="3" fill="#7F8C8D"/></g><g id="teaching-callout"><rect x="363" y="795" rx="6" width="872" height="46" stroke="#000F46" stroke-width="1.2" stroke-dasharray="4 4" fill="#F4F7F9"/><text fill="#000F46" font-family="Arial,Arial" font-style="italic" font-size="15" x="479" y="823">"High electrical load and heat are concentrated inside this small cabinet footprint."</text></g></svg>