<svg width="1600" height="950" viewBox="0 0 1600 950" xmlns="http://www.w3.org/2000/svg" xmlns:xlink="http://www.w3.org/1999/xlink" overflow="hidden"><rect x="0" y="0" width="1600" height="950" fill="#FFFFFF"/><text fill="#0F4761" font-family="Arial,Arial" font-weight="700" font-size="42" x="170" y="80">AI Data Centre Infrastructure Surge, 2022–2030</text><text fill="#333333" font-family="Arial,Arial" font-size="22" x="170" y="125">Global AI-related capacity demand and US construction spending after the late-2022 inflection point</text><g><rect x="170" y="150" width="30" height="15" fill="#2E6F95"/><text fill="#333333" font-family="Arial,Arial" font-size="20" x="215" y="163">US construction spending (USD billions)</text><line x1="680" y1="157" x2="720" y2="157" stroke="#7A1FA2" stroke-width="4.5" stroke-linecap="round"/><circle cx="700" cy="157" r="6" stroke="#FFFFFF" stroke-width="1.5" fill="#7A1FA2"/><text fill="#333333" font-family="Arial,Arial" font-size="20" x="735" y="163">AI-related data-centre capacity demand (GW)</text></g><rect x="965" y="190" width="260" height="550" fill="#F5E6CC"/><text fill="#333333" font-family="Arial,Arial" font-weight="700" font-size="20" text-anchor="middle" x="1095" y="230">Potential supply pressure</text><text fill="#333333" font-family="Arial,Arial" font-weight="700" font-size="18" text-anchor="middle" x="1095" y="255">2028–2029</text><line x1="170" y1="630" x2="1370" y2="630" stroke="#D9D9D9" stroke-width="1.5"/><line x1="170" y1="520" x2="1370" y2="520" stroke="#D9D9D9" stroke-width="1.5"/><line x1="170" y1="410" x2="1370" y2="410" stroke="#D9D9D9" stroke-width="1.5"/><line x1="170" y1="300" x2="1370" y2="300" stroke="#D9D9D9" stroke-width="1.5"/><line x1="170" y1="190" x2="1370" y2="190" stroke="#D9D9D9" stroke-width="1.5"/><line x1="170" y1="740" x2="160" y2="740" stroke="#333333" stroke-width="1.5"/><line x1="170" y1="602.5" x2="160" y2="602.5" stroke="#333333" stroke-width="1.5"/><line x1="170" y1="465" x2="160" y2="465" stroke="#333333" stroke-width="1.5"/><line x1="170" y1="327.5" x2="160" y2="327.5" stroke="#333333" stroke-width="1.5"/><line x1="170" y1="190" x2="160" y2="190" stroke="#333333" stroke-width="1.5"/><text fill="#333333" font-family="Arial,Arial" font-size="20" text-anchor="end" x="150" y="747">0</text><text fill="#333333" font-family="Arial,Arial" font-size="20" text-anchor="end" x="150" y="609.5">25</text><text fill="#333333" font-family="Arial,Arial" font-size="20" text-anchor="end" x="150" y="472">50</text><text fill="#333333" font-family="Arial,Arial" font-size="20" text-anchor="end" x="150" y="334.5">75</text><text fill="#333333" font-family="Arial,Arial" font-size="20" text-anchor="end" x="150" y="197">100</text><text fill="#333333" font-family="Arial,Arial" font-size="22" text-anchor="middle" transform="matrix(6.12323e-17 -1 1 6.12323e-17 -405 525)" x="60" y="465">US annual construction spending (USD billions)</text><line x1="1370" y1="740" x2="1380" y2="740" stroke="#333333" stroke-width="1.5"/><line x1="1370" y1="630" x2="1380" y2="630" stroke="#333333" stroke-width="1.5"/><line x1="1370" y1="520" x2="1380" y2="520" stroke="#333333" stroke-width="1.5"/><line x1="1370" y1="410" x2="1380" y2="410" stroke="#333333" stroke-width="1.5"/><line x1="1370" y1="300" x2="1380" y2="300" stroke="#333333" stroke-width="1.5"/><line x1="1370" y1="190" x2="1380" y2="190" stroke="#333333" stroke-width="1.5"/><text fill="#333333" font-family="Arial,Arial" font-size="20" text-anchor="start" x="1390" y="747">0</text><text fill="#333333" font-family="Arial,Arial" font-size="20" text-anchor="start" x="1390" y="637">25</text><text fill="#333333" font-family="Arial,Arial" font-size="20" text-anchor="start" x="1390" y="527">50</text><text fill="#333333" font-family="Arial,Arial" font-size="20" text-anchor="start" x="1390" y="417">75</text><text fill="#333333" font-family="Arial,Arial" font-size="20" text-anchor="start" x="1390" y="307">100</text><text fill="#333333" font-family="Arial,Arial" font-size="20" text-anchor="start" x="1390" y="197">125</text><text fill="#333333" font-family="Arial,Arial" font-size="22" text-anchor="middle" transform="matrix(6.12323e-17 1 -1 6.12323e-17 1955 -1025)" x="1490" y="465">AI-related data-centre capacity demand (GW)</text><text fill="#333333" font-family="Arial,Arial" font-size="20" text-anchor="middle" x="250" y="780">2022</text><text fill="#333333" font-family="Arial,Arial" font-size="20" text-anchor="middle" x="380" y="780">2023</text><text fill="#333333" font-family="Arial,Arial" font-size="20" text-anchor="middle" x="510" y="780">2024</text><text fill="#333333" font-family="Arial,Arial" font-size="20" text-anchor="middle" x="640" y="780">2025</text><text fill="#333333" font-family="Arial,Arial" font-size="20" text-anchor="middle" x="770" y="780">2026</text><text fill="#333333" font-family="Arial,Arial" font-size="20" text-anchor="middle" x="900" y="780">2027</text><text fill="#333333" font-family="Arial,Arial" font-size="20" text-anchor="middle" x="1030" y="780">2028</text><text fill="#333333" font-family="Arial,Arial" font-size="20" text-anchor="middle" x="1160" y="780">2029</text><text fill="#333333" font-family="Arial,Arial" font-size="20" text-anchor="middle" x="1290" y="780">2030</text><line x1="170" y1="190" x2="170" y2="740" stroke="#333333" stroke-width="2"/><line x1="1370" y1="190" x2="1370" y2="740" stroke="#333333" stroke-width="2"/><line x1="170" y1="740" x2="1370" y2="740" stroke="#333333" stroke-width="2"/><g><rect x="215" y="679.5" width="70" height="60.5" fill="#2E6F95"/><text fill="#333333" font-family="Arial,Arial" font-weight="700" font-size="22" text-anchor="middle" x="250" y="662">$11B</text><rect x="345" y="619" width="70" height="121" fill="#2E6F95"/><rect x="475" y="586" width="70" height="154" fill="#2E6F95"/><rect x="605" y="476" width="70" height="264" fill="#2E6F95"/><rect x="735" y="267" width="70" height="473" fill="#2E6F95"/><text fill="#333333" font-family="Arial,Arial" font-weight="700" font-size="22" text-anchor="middle" x="770" y="250">~$86B</text><rect x="865" y="289" width="70" height="451" fill="#2E6F95"/><rect x="995" y="327.5" width="70" height="412.5" fill="#2E6F95"/><rect x="1125" y="355" width="70" height="385" fill="#2E6F95"/><rect x="1255" y="393.5" width="70" height="346.5" fill="#2E6F95"/><text fill="#333333" font-family="Arial,Arial" font-weight="700" font-size="22" text-anchor="middle" x="1290" y="375">~$63B</text></g><line x1="315" y1="190" x2="315" y2="740" stroke="#7A1FA2" stroke-width="2" stroke-dasharray="8 6"/><text fill="#7A1FA2" font-family="Arial,Arial" font-weight="700" font-size="16" text-anchor="end" x="305" y="235">Late 2022</text><text fill="#333333" font-family="Arial,Arial" font-size="15" text-anchor="end" x="305" y="255">ChatGPT release</text><g><path d="M380 630 770 520 1030 410 1290 190" stroke="#7A1FA2" stroke-width="4.5" stroke-linecap="round" stroke-linejoin="round" fill="none"/><circle cx="380" cy="630" r="7" stroke="#FFFFFF" stroke-width="2" fill="#7A1FA2"/><circle cx="770" cy="520" r="7" stroke="#FFFFFF" stroke-width="2" fill="#7A1FA2"/><circle cx="1030" cy="410" r="7" stroke="#FFFFFF" stroke-width="2" fill="#7A1FA2"/><circle cx="1290" cy="190" r="7" stroke="#FFFFFF" stroke-width="2" fill="#7A1FA2"/><text stroke="#FFFFFF" stroke-width="6" stroke-linejoin="round" fill="none" font-family="Arial,Arial" font-weight="700" font-size="22" text-anchor="middle" x="380" y="605">~25 GW</text><text fill="#7A1FA2" font-family="Arial,Arial" font-weight="700" font-size="22" text-anchor="middle" x="380" y="605">~25 GW</text><text stroke="#FFFFFF" stroke-width="6" stroke-linejoin="round" fill="none" font-family="Arial,Arial" font-weight="700" font-size="22" text-anchor="middle" x="1030" y="380">~75 GW</text><text fill="#7A1FA2" font-family="Arial,Arial" font-weight="700" font-size="22" text-anchor="middle" x="1030" y="380">~75 GW</text><text stroke="#FFFFFF" stroke-width="6" stroke-linejoin="round" fill="none" font-family="Arial,Arial" font-weight="700" font-size="22" text-anchor="middle" x="1290" y="160">~125 GW</text><text fill="#7A1FA2" font-family="Arial,Arial" font-weight="700" font-size="22" text-anchor="middle" x="1290" y="160">~125 GW</text></g></svg>