<svg width="1600" height="950" viewBox="0 0 1600 950" xmlns="http://www.w3.org/2000/svg" xmlns:xlink="http://www.w3.org/1999/xlink" overflow="hidden"><rect x="0" y="0" width="1600" height="950" fill="#FFFFFF"/><text fill="#000F46" font-family="Arial,Arial" font-weight="700" font-size="42" x="170" y="80">Global Data Centre Capacity Distribution</text><text fill="#333333" font-family="Arial,Arial" font-size="22" x="170" y="125">MW share of active capacity across deployment models, 2020–2030 (adapted from Synergy Research and IDC)</text><g><rect x="170" y="150" width="30" height="15" fill="#1B3673"/><text fill="#333333" font-family="Arial,Arial" font-size="18" x="215" y="163">Enterprise/On-Premises</text><rect x="520" y="150" width="30" height="15" fill="#3C5FA6"/><text fill="#333333" font-family="Arial,Arial" font-size="18" x="565" y="163">Colocation</text><rect x="800" y="150" width="30" height="15" fill="#000F46"/><text fill="#333333" font-family="Arial,Arial" font-size="18" x="845" y="163">Hyperscale</text><rect x="1110" y="150" width="30" height="15" fill="#46C8F0"/><text fill="#333333" font-family="Arial,Arial" font-size="18" x="1155" y="163">Edge</text></g><line x1="170" y1="630" x2="1370" y2="630" stroke="#D9D9D9" stroke-width="1.5"/><line x1="170" y1="520" x2="1370" y2="520" stroke="#D9D9D9" stroke-width="1.5"/><line x1="170" y1="410" x2="1370" y2="410" stroke="#D9D9D9" stroke-width="1.5"/><line x1="170" y1="300" x2="1370" y2="300" stroke="#D9D9D9" stroke-width="1.5"/><line x1="170" y1="190" x2="1370" y2="190" stroke="#D9D9D9" stroke-width="1.5"/><g><path d="M170 740 170 421 410 432 650 476 890 520 1130 564 1370 602.5 1370 740Z" stroke="#FFFFFF" stroke-width="2" stroke-linejoin="round" fill="#1B3673"/><path d="M170 421 170 300 410 311 650 366 890 421 1130 476 1370 536.5 1370 602.5 1130 564 890 520 650 476 410 432Z" stroke="#FFFFFF" stroke-width="2" stroke-linejoin="round" fill="#3C5FA6"/><path d="M170 300 170 217.5 410 212 650 206.5 890 203.75 1130 201 1370 201 1370 536.5 1130 476 890 421 650 366 410 311Z" stroke="#FFFFFF" stroke-width="2" stroke-linejoin="round" fill="#000F46"/><path d="M170 217.5 170 190 410 190 650 190 890 190 1130 190 1370 190 1370 201 1130 201 890 203.75 650 206.5 410 212Z" stroke="#FFFFFF" stroke-width="2" stroke-linejoin="round" fill="#46C8F0"/></g><line x1="170" y1="740" x2="160" y2="740" stroke="#333333" stroke-width="1.5"/><line x1="170" y1="630" x2="160" y2="630" stroke="#333333" stroke-width="1.5"/><line x1="170" y1="520" x2="160" y2="520" stroke="#333333" stroke-width="1.5"/><line x1="170" y1="410" x2="160" y2="410" stroke="#333333" stroke-width="1.5"/><line x1="170" y1="300" x2="160" y2="300" stroke="#333333" stroke-width="1.5"/><line x1="170" y1="190" x2="160" y2="190" stroke="#333333" stroke-width="1.5"/><text fill="#333333" font-family="Arial,Arial" font-size="20" text-anchor="end" x="150" y="747">0%</text><text fill="#333333" font-family="Arial,Arial" font-size="20" text-anchor="end" x="150" y="637">20%</text><text fill="#333333" font-family="Arial,Arial" font-size="20" text-anchor="end" x="150" y="527">40%</text><text fill="#333333" font-family="Arial,Arial" font-size="20" text-anchor="end" x="150" y="417">60%</text><text fill="#333333" font-family="Arial,Arial" font-size="20" text-anchor="end" x="150" y="307">80%</text><text fill="#333333" font-family="Arial,Arial" font-size="20" text-anchor="end" x="150" y="197">100%</text><line x1="170" y1="740" x2="170" y2="750" stroke="#333333" stroke-width="1.5"/><line x1="410" y1="740" x2="410" y2="750" stroke="#333333" stroke-width="1.5"/><line x1="650" y1="740" x2="650" y2="750" stroke="#333333" stroke-width="1.5"/><line x1="890" y1="740" x2="890" y2="750" stroke="#333333" stroke-width="1.5"/><line x1="1130" y1="740" x2="1130" y2="750" stroke="#333333" stroke-width="1.5"/><line x1="1370" y1="740" x2="1370" y2="750" stroke="#333333" stroke-width="1.5"/><text fill="#333333" font-family="Arial,Arial" font-size="20" text-anchor="middle" x="170" y="780">2020</text><text fill="#333333" font-family="Arial,Arial" font-size="20" text-anchor="middle" x="410" y="780">2022</text><text fill="#333333" font-family="Arial,Arial" font-size="20" text-anchor="middle" x="650" y="780">2024</text><text fill="#333333" font-family="Arial,Arial" font-size="20" text-anchor="middle" x="890" y="780">2026</text><text fill="#333333" font-family="Arial,Arial" font-size="20" text-anchor="middle" x="1130" y="780">2028</text><text fill="#333333" font-family="Arial,Arial" font-size="20" text-anchor="middle" x="1370" y="780">2030</text><line x1="170" y1="190" x2="170" y2="740" stroke="#333333" stroke-width="2"/><line x1="170" y1="740" x2="1370" y2="740" stroke="#333333" stroke-width="2"/><text fill="#FFFFFF" font-family="Arial,Arial" font-weight="700" font-size="22" text-anchor="middle" x="220" y="590">58%</text><text fill="#FFFFFF" font-family="Arial,Arial" font-weight="700" font-size="22" text-anchor="middle" x="220" y="370">22%</text><text fill="#FFFFFF" font-family="Arial,Arial" font-weight="700" font-size="22" text-anchor="middle" x="220" y="265">15%</text><text fill="#FFFFFF" font-family="Arial,Arial" font-weight="700" font-size="22" text-anchor="middle" x="1320" y="680">25%</text><text fill="#FFFFFF" font-family="Arial,Arial" font-weight="700" font-size="22" text-anchor="middle" x="1320" y="575">12%</text><text fill="#FFFFFF" font-family="Arial,Arial" font-weight="700" font-size="22" text-anchor="middle" x="1320" y="380">61%</text><g><rect x="700" y="280" rx="15" ry="15" width="460" height="100" stroke="#000F46" stroke-width="2" fill="#FFFFFF"/><path d="M732 340C727 340 722 336 722 330 722 326 725 322 729 321 730 314 736 308 743 308 748 308 753 311 756 315 758 313 762 312 765 312 770 312 774 316 774 321 778 322 780 326 780 330 780 336 775 340 770 340Z" stroke="#000F46" stroke-width="3" stroke-linejoin="round" fill="none"/><text fill="#000F46" font-family="Arial,Arial" font-weight="700" font-size="14" text-anchor="middle" x="751" y="334">AI</text><text fill="#333333" font-family="Arial,Arial" font-weight="700" font-size="22" x="795" y="325">Hyperscale dominance</text><text fill="#666666" font-family="Arial,Arial" font-size="20" x="795" y="358">driven by AI &amp; Cloud</text></g></svg>