<svg width="1600" height="1900" viewBox="0 0 1600 1900" xmlns="http://www.w3.org/2000/svg" xmlns:xlink="http://www.w3.org/1999/xlink" overflow="hidden"><defs><marker refX="16" refY="9" markerWidth="18" markerHeight="18" orient="auto" id="arrow-grey" overflow="hidden"><path d="M1 1 17 9 1 17Z" fill="#4B5563"/></marker><marker refX="27" refY="15" markerWidth="30" markerHeight="30" orient="auto" id="arrow-orange" overflow="hidden"><path d="M1 1 29 15 1 29Z" fill="#D96F32"/></marker></defs><rect x="0" y="0" width="1600" height="1900" fill="#FFFFFF"/><text fill="#1F2933" font-family="Arial,Arial" font-weight="700" font-size="58" text-anchor="middle" x="800" y="105">The AI Physical-to-Digital Stack for Data Centres</text><text fill="#4B5563" font-family="Arial,Arial" font-style="italic" font-size="34" text-anchor="middle" x="800" y="165">How data centre infrastructure enables generative AI applications</text><line x1="390" y1="205" x2="1210" y2="205" stroke="#D7DEE5" stroke-width="3"/><line x1="112" y1="322" x2="112" y2="1518" stroke="#4B5563" stroke-width="4" marker-end="url(#arrow-grey)"/><text fill="#1F2933" font-family="Arial,Arial" font-weight="700" font-size="28" text-anchor="middle" transform="matrix(6.12323e-17 -1 1 6.12323e-17 -862 978)" x="58" y="920">Energy, cooling, and physical constraints increase downward</text><line x1="1530" y1="1518" x2="1530" y2="322" stroke="#4B5563" stroke-width="4" marker-end="url(#arrow-grey)"/><text fill="#1F2933" font-family="Arial,Arial" font-weight="700" font-size="28" text-anchor="middle" transform="matrix(6.12323e-17 -1 1 6.12323e-17 660 2500)" x="1580" y="920">Abstraction and software complexity increase upward</text><rect x="230" y="280" rx="28" width="1140" height="220" stroke="#4B5563" stroke-width="4" fill="#9AAFEA"/><g stroke="#1F2933" stroke-width="6" stroke-linecap="round" stroke-linejoin="round" fill="none"><rect x="285" y="335" rx="10" width="150" height="105"/><line x1="285" y1="368" x2="435" y2="368"/><circle cx="307" cy="351" r="4" stroke="none" fill="#1F2933"/><circle cx="326" cy="351" r="4" stroke="none" fill="#1F2933"/><circle cx="345" cy="351" r="4" stroke="none" fill="#1F2933"/><path d="M402 310 413 338 441 349 413 360 402 388 391 360 363 349 391 338Z"/><path d="M440 306 445 318 457 323 445 328 440 340 435 328 423 323 435 318Z" stroke-width="4"/></g><text fill="#1F2933" font-family="Arial,Arial" font-weight="700" font-size="38" x="500" y="335">5) Applications</text><text fill="#1F2933" font-family="Arial,Arial" font-size="28" x="500" y="380">• Chat, copilots, and agents</text><text fill="#1F2933" font-family="Arial,Arial" font-size="28" x="500" y="416">• Enterprise automation</text><text fill="#1F2933" font-family="Arial,Arial" font-size="28" x="500" y="452">• BIM, digital twins, simulation</text><text fill="#1F2933" font-family="Arial,Arial" font-size="28" x="500" y="488">• End users and organisations</text><line x1="800" y1="540" x2="800" y2="508" stroke="#4B5563" stroke-width="4" marker-end="url(#arrow-grey)"/><rect x="230" y="550" rx="28" width="1140" height="220" stroke="#4B5563" stroke-width="4" fill="#DCE6F6"/><g stroke="#1F2933" stroke-width="6" stroke-linecap="round" stroke-linejoin="round" fill="none"><path d="M292 674C270 674 255 658 255 637 255 616 271 600 292 600 301 570 326 552 355 552 388 552 416 575 421 608 444 611 460 627 460 649 460 671 443 688 421 688L292 688C278 688 268 682 261 674"/><circle cx="320" cy="633" r="10" fill="#DCE6F6"/><circle cx="365" cy="606" r="10" fill="#DCE6F6"/><circle cx="410" cy="633" r="10" fill="#DCE6F6"/><circle cx="365" cy="660" r="10" fill="#DCE6F6"/><circle cx="307" cy="695" r="10" fill="#DCE6F6"/><circle cx="423" cy="695" r="10" fill="#DCE6F6"/><line x1="329" y1="628" x2="356" y2="611"/><line x1="374" y1="611" x2="401" y2="628"/><line x1="410" y1="643" x2="374" y2="657"/><line x1="356" y1="657" x2="320" y2="643"/><line x1="365" y1="670" x2="365" y2="708"/><line x1="320" y1="643" x2="310" y2="685"/><line x1="410" y1="643" x2="420" y2="685"/></g><text fill="#1F2933" font-family="Arial,Arial" font-weight="700" font-size="38" x="500" y="605">4) Platforms and Models</text><text fill="#1F2933" font-family="Arial,Arial" font-size="28" x="500" y="650">• Orchestration and scheduling</text><text fill="#1F2933" font-family="Arial,Arial" font-size="28" x="500" y="686">• Distributed training and inference</text><text fill="#1F2933" font-family="Arial,Arial" font-size="28" x="500" y="722">• Data pipelines and MLOps</text><text fill="#1F2933" font-family="Arial,Arial" font-size="28" x="500" y="758">• Foundation models and LLMs</text><line x1="800" y1="810" x2="800" y2="778" stroke="#4B5563" stroke-width="4" marker-end="url(#arrow-grey)"/><rect x="230" y="820" rx="28" width="1140" height="220" stroke="#4B5563" stroke-width="4" fill="#E8EEF3"/><g stroke="#1F2933" stroke-width="6" stroke-linecap="round" stroke-linejoin="round" fill="none"><rect x="290" y="862" rx="8" width="155" height="132"/><rect x="305" y="878" rx="5" width="125" height="28"/><rect x="305" y="916" rx="5" width="125" height="28"/><rect x="305" y="954" rx="5" width="125" height="28"/><circle cx="324" cy="892" r="4" stroke="none" fill="#1F2933"/><circle cx="324" cy="930" r="4" stroke="none" fill="#1F2933"/><circle cx="324" cy="968" r="4" stroke="none" fill="#1F2933"/><line x1="390" y1="892" x2="414" y2="892"/><line x1="390" y1="930" x2="414" y2="930"/><line x1="390" y1="968" x2="414" y2="968"/><line x1="367" y1="994" x2="367" y2="1015"/><line x1="337" y1="1015" x2="397" y2="1015"/></g><text fill="#1F2933" font-family="Arial,Arial" font-weight="700" font-size="38" x="500" y="875">3) Compute Hardware</text><text fill="#1F2933" font-family="Arial,Arial" font-size="28" x="500" y="920">• Racks and servers</text><text fill="#1F2933" font-family="Arial,Arial" font-size="28" x="500" y="956">• GPUs, TPUs, and AI chips</text><text fill="#1F2933" font-family="Arial,Arial" font-size="28" x="500" y="992">• Storage and high-speed networking</text><text fill="#1F2933" font-family="Arial,Arial" font-size="28" x="500" y="1028">• Liquid cooling for high-density racks</text><line x1="800" y1="1080" x2="800" y2="1048" stroke="#4B5563" stroke-width="4" marker-end="url(#arrow-grey)"/><rect x="230" y="1090" rx="28" width="1140" height="220" stroke="#4B5563" stroke-width="4" fill="#F6C39B"/><g stroke="#1F2933" stroke-width="6" stroke-linecap="round" stroke-linejoin="round" fill="none"><path d="M275 1262 275 1168 335 1168 335 1262Z"/><path d="M335 1262 335 1200 390 1200 390 1262Z"/><path d="M390 1262 390 1186 438 1186 438 1262Z"/><path d="M401 1186C410 1168 411 1146 405 1128L423 1128C417 1146 418 1168 427 1186"/><line x1="275" y1="1262" x2="450" y2="1262"/><line x1="290" y1="1186" x2="290" y2="1240"/><line x1="308" y1="1186" x2="308" y2="1240"/><line x1="326" y1="1186" x2="326" y2="1240"/><line x1="350" y1="1218" x2="350" y2="1240"/><line x1="373" y1="1218" x2="373" y2="1240"/><path d="M402 1114C393 1103 409 1098 401 1087"/><path d="M417 1114C408 1103 424 1098 416 1087"/><path d="M432 1114C423 1103 439 1098 431 1087"/></g><text fill="#1F2933" font-family="Arial,Arial" font-weight="700" font-size="36" x="500" y="1145">2) Data Centre Facility and Building Systems</text><text fill="#1F2933" font-family="Arial,Arial" font-size="28" x="500" y="1190">• UPS, switchgear, and redundancy</text><text fill="#1F2933" font-family="Arial,Arial" font-size="28" x="500" y="1226">• Cooling plant: chillers and towers</text><text fill="#1F2933" font-family="Arial,Arial" font-size="28" x="500" y="1262">• Backup generation and resilience</text><text fill="#1F2933" font-family="Arial,Arial" font-size="28" x="500" y="1298">• Safety, security, and DCIM</text><line x1="800" y1="1350" x2="800" y2="1318" stroke="#4B5563" stroke-width="4" marker-end="url(#arrow-grey)"/><rect x="230" y="1360" rx="28" width="1140" height="220" stroke="#4B5563" stroke-width="4" fill="#E88955"/><g stroke="#1F2933" stroke-width="6" stroke-linecap="round" stroke-linejoin="round" fill="none"><path d="M307 1402 278 1450 307 1450 292 1490 343 1435 315 1435 333 1402Z"/><path d="M397 1407C397 1407 365 1443 365 1466 365 1487 379 1501 397 1501 415 1501 429 1487 429 1466 429 1443 397 1407 397 1407Z"/><path d="M284 1530C302 1514 322 1514 340 1530 322 1546 302 1546 284 1530Z"/><line x1="260" y1="1530" x2="284" y2="1530"/><line x1="340" y1="1530" x2="362" y2="1530"/><path d="M388 1550C389 1516 415 1498 451 1499 451 1534 430 1555 397 1557"/><line x1="390" y1="1572" x2="420" y2="1528"/></g><text fill="#1F2933" font-family="Arial,Arial" font-weight="700" font-size="38" x="500" y="1413">1) Physical Site and Utilities</text><text fill="#1F2933" font-family="Arial,Arial" font-size="27" x="500" y="1457">• Grid power, substations, renewables</text><text fill="#1F2933" font-family="Arial,Arial" font-size="27" x="500" y="1491">• Water supply for cooling</text><text fill="#1F2933" font-family="Arial,Arial" font-size="27" x="500" y="1525">• Fibre connectivity and backhaul</text><text fill="#1F2933" font-family="Arial,Arial" font-size="27" x="500" y="1559">• Land, planning, and permits</text><path d="M1380 390C1465 410 1480 650 1450 790 1432 875 1408 925 1385 950" stroke="#D96F32" stroke-width="9" stroke-linecap="round" fill="none" marker-end="url(#arrow-orange)"/><text fill="#B95623" font-family="Arial,Arial" font-weight="700" font-size="25" text-anchor="middle" transform="matrix(6.12323e-17 1 -1 6.12323e-17 2133 -813)" x="1473" y="660">Demand drives compute and facility expansion</text><line x1="350" y1="1670" x2="1250" y2="1670" stroke="#D7DEE5" stroke-width="3"/><text fill="#1F2933" font-family="Arial,Arial" font-style="italic" font-size="30" text-anchor="middle" x="800" y="1730">Cross-cutting concerns: Security • Sustainability • Observability</text></svg>