<svg width="1600" height="850" viewBox="0 0 1600 850" xmlns="http://www.w3.org/2000/svg" xmlns:xlink="http://www.w3.org/1999/xlink" overflow="hidden"><rect x="0" y="0" width="1600" height="850" fill="#FFFFFF"/><line x1="155" y1="310" x2="155" y2="410" stroke="#000F46" stroke-width="2" stroke-dasharray="4 4"/><line x1="485" y1="310" x2="485" y2="410" stroke="#000F46" stroke-width="2" stroke-dasharray="4 4"/><line x1="870" y1="310" x2="870" y2="410" stroke="#000F46" stroke-width="2" stroke-dasharray="4 4"/><line x1="1350" y1="310" x2="1350" y2="410" stroke="#B45F06" stroke-width="2" stroke-dasharray="4 4"/><line x1="320" y1="410" x2="320" y2="510" stroke="#000F46" stroke-width="2" stroke-dasharray="4 4"/><line x1="650" y1="410" x2="650" y2="510" stroke="#000F46" stroke-width="2" stroke-dasharray="4 4"/><line x1="1090" y1="410" x2="1090" y2="510" stroke="#000F46" stroke-width="2" stroke-dasharray="4 4"/><line x1="80" y1="410" x2="1200" y2="410" stroke="#000F46" stroke-width="8" stroke-linecap="round"/><line x1="1200" y1="410" x2="1500" y2="410" stroke="#B45F06" stroke-width="8" stroke-linecap="round" stroke-dasharray="15 10"/><path d="M1500 402 1516 410 1500 418Z" fill="#B45F06"/><circle cx="100" cy="410" r="8" stroke="#000F46" stroke-width="3" fill="#FFFFFF"/><circle cx="210" cy="410" r="8" stroke="#000F46" stroke-width="3" fill="#FFFFFF"/><circle cx="430" cy="410" r="8" stroke="#000F46" stroke-width="3" fill="#FFFFFF"/><circle cx="540" cy="410" r="8" stroke="#000F46" stroke-width="3" fill="#FFFFFF"/><circle cx="760" cy="410" r="8" stroke="#000F46" stroke-width="3" fill="#FFFFFF"/><circle cx="980" cy="410" r="8" stroke="#000F46" stroke-width="3" fill="#FFFFFF"/><circle cx="1200" cy="410" r="8" stroke="#000F46" stroke-width="3" fill="#FFFFFF"/><circle cx="1500" cy="410" r="8" stroke="#B45F06" stroke-width="3" fill="#FFFFFF"/><g id="milestone-1"><rect x="25" y="160" rx="12" width="260" height="150" stroke="#000F46" stroke-width="2" fill="#FFFFFF"/><text fill="#000F46" font-family="Arial,Arial" font-weight="700" font-size="28" text-anchor="middle" x="155" y="198">01</text><text fill="#333333" font-family="Arial,Arial" font-weight="700" font-size="22" text-anchor="middle" x="155" y="232">Application and</text><text fill="#333333" font-family="Arial,Arial" font-weight="700" font-size="22" text-anchor="middle" x="155" y="258">grid feasibility</text><text fill="#2F6F8F" font-family="Arial,Arial" font-size="19" text-anchor="middle" x="155" y="292">0–6 months</text></g><g id="milestone-2"><rect x="190" y="510" rx="12" width="260" height="150" stroke="#000F46" stroke-width="2" fill="#FFFFFF"/><text fill="#000F46" font-family="Arial,Arial" font-weight="700" font-size="28" text-anchor="middle" x="320" y="548">02</text><text fill="#333333" font-family="Arial,Arial" font-weight="700" font-size="22" text-anchor="middle" x="320" y="582">System impact and</text><text fill="#333333" font-family="Arial,Arial" font-weight="700" font-size="22" text-anchor="middle" x="320" y="608">facility studies</text><text fill="#2F6F8F" font-family="Arial,Arial" font-size="19" text-anchor="middle" x="320" y="642">6–18 months</text></g><g id="milestone-3"><rect x="355" y="160" rx="12" width="260" height="150" stroke="#000F46" stroke-width="2" fill="#FFFFFF"/><text fill="#000F46" font-family="Arial,Arial" font-weight="700" font-size="28" text-anchor="middle" x="485" y="198">03</text><text fill="#333333" font-family="Arial,Arial" font-weight="700" font-size="22" text-anchor="middle" x="485" y="232">Interconnection</text><text fill="#333333" font-family="Arial,Arial" font-weight="700" font-size="22" text-anchor="middle" x="485" y="258">agreement and FEED</text><text fill="#2F6F8F" font-family="Arial,Arial" font-size="19" text-anchor="middle" x="485" y="292">18–24 months</text></g><g id="milestone-4"><rect x="520" y="510" rx="12" width="260" height="150" stroke="#000F46" stroke-width="2" fill="#FFFFFF"/><text fill="#000F46" font-family="Arial,Arial" font-weight="700" font-size="28" text-anchor="middle" x="650" y="548">04</text><text fill="#333333" font-family="Arial,Arial" font-weight="700" font-size="22" text-anchor="middle" x="650" y="582">Long-lead equipment</text><text fill="#333333" font-family="Arial,Arial" font-weight="700" font-size="22" text-anchor="middle" x="650" y="608">procurement</text><text fill="#2F6F8F" font-family="Arial,Arial" font-size="19" text-anchor="middle" x="650" y="642">24–36 months</text></g><g id="milestone-5"><rect x="740" y="160" rx="12" width="260" height="150" stroke="#000F46" stroke-width="2" fill="#FFFFFF"/><text fill="#000F46" font-family="Arial,Arial" font-weight="700" font-size="28" text-anchor="middle" x="870" y="198">05</text><text fill="#333333" font-family="Arial,Arial" font-weight="700" font-size="22" text-anchor="middle" x="870" y="232">Substation construction</text><text fill="#333333" font-family="Arial,Arial" font-weight="700" font-size="22" text-anchor="middle" x="870" y="258">and grid reinforcement</text><text fill="#2F6F8F" font-family="Arial,Arial" font-size="19" text-anchor="middle" x="870" y="292">36–48 months</text></g><g id="milestone-6"><rect x="960" y="510" rx="12" width="260" height="150" stroke="#000F46" stroke-width="2" fill="#FFFFFF"/><text fill="#000F46" font-family="Arial,Arial" font-weight="700" font-size="28" text-anchor="middle" x="1090" y="548">06</text><text fill="#333333" font-family="Arial,Arial" font-weight="700" font-size="22" text-anchor="middle" x="1090" y="582">Testing, commissioning</text><text fill="#333333" font-family="Arial,Arial" font-weight="700" font-size="22" text-anchor="middle" x="1090" y="608">and energisation</text><text fill="#2F6F8F" font-family="Arial,Arial" font-size="19" text-anchor="middle" x="1090" y="642">48–60+ months</text></g><g id="milestone-extension"><rect x="1220" y="160" rx="12" width="260" height="150" stroke="#B45F06" stroke-width="2" stroke-dasharray="6 4" fill="#FFFBF7"/><text fill="#B45F06" font-family="Arial,Arial" font-weight="700" font-size="22" text-anchor="middle" x="1350" y="198">RISK ZONE</text><text fill="#333333" font-family="Arial,Arial" font-size="19" text-anchor="middle" x="1350" y="232">Possible extension in</text><text fill="#333333" font-family="Arial,Arial" font-size="19" text-anchor="middle" x="1350" y="258">constrained markets</text><text fill="#B45F06" font-family="Arial,Arial" font-weight="700" font-size="19" text-anchor="middle" x="1350" y="292">60–96+ months</text></g><g id="callout-1"><rect x="315" y="15" rx="8" width="340" height="110" stroke="#2F6F8F" stroke-width="1.5" fill="#DCE6EF"/><text fill="#000F46" font-family="Arial,Arial" font-weight="700" font-size="22" text-anchor="middle" x="485" y="42">De-risking point</text><text fill="#333333" font-family="Arial,Arial" font-size="17" text-anchor="middle" x="485" y="72">FEED studies &amp; reservation fees confirm</text><text fill="#333333" font-family="Arial,Arial" font-size="17" text-anchor="middle" x="485" y="96">sponsor commitment before major works.</text><line x1="485" y1="125" x2="485" y2="160" stroke="#2F6F8F" stroke-width="1.5"/></g><g id="callout-2"><rect x="480" y="675" rx="8" width="340" height="100" stroke="#2F6F8F" stroke-width="1.5" fill="#DCE6EF"/><text fill="#000F46" font-family="Arial,Arial" font-weight="700" font-size="22" text-anchor="middle" x="650" y="702">Supply-chain bottleneck</text><text fill="#333333" font-family="Arial,Arial" font-size="17" text-anchor="middle" x="650" y="730">Transformers and switchgear can</text><text fill="#333333" font-family="Arial,Arial" font-size="17" text-anchor="middle" x="650" y="754">drive critical-path delays.</text><line x1="650" y1="660" x2="650" y2="675" stroke="#2F6F8F" stroke-width="1.5"/></g><g id="callout-3"><rect x="1200" y="675" rx="8" width="340" height="110" stroke="#2F6F8F" stroke-width="1.5" fill="#DCE6EF"/><text fill="#000F46" font-family="Arial,Arial" font-weight="700" font-size="22" text-anchor="middle" x="1370" y="702">Project delivery risk</text><text fill="#333333" font-family="Arial,Arial" font-size="17" text-anchor="middle" x="1370" y="730">Late grid works can create stranded</text><text fill="#333333" font-family="Arial,Arial" font-size="17" text-anchor="middle" x="1370" y="754">asset risk and delayed revenue.</text><line x1="1370" y1="418" x2="1370" y2="675" stroke="#2F6F8F" stroke-width="1.5" stroke-dasharray="3 3"/><circle cx="1370" cy="418" r="3" fill="#2F6F8F"/></g><g id="bottom-axis"><line x1="80" y1="810" x2="1500" y2="810" stroke="#333333" stroke-width="2"/><text fill="#555555" font-family="Arial,Arial" font-weight="700" font-size="18" text-anchor="start" x="80" y="802">Cumulative project months</text><line x1="100" y1="810" x2="100" y2="820" stroke="#333333" stroke-width="2"/><line x1="210" y1="810" x2="210" y2="820" stroke="#333333" stroke-width="2"/><line x1="430" y1="810" x2="430" y2="820" stroke="#333333" stroke-width="2"/><line x1="540" y1="810" x2="540" y2="820" stroke="#333333" stroke-width="2"/><line x1="760" y1="810" x2="760" y2="820" stroke="#333333" stroke-width="2"/><line x1="980" y1="810" x2="980" y2="820" stroke="#333333" stroke-width="2"/><line x1="1200" y1="810" x2="1200" y2="820" stroke="#333333" stroke-width="2"/><line x1="1500" y1="810" x2="1500" y2="820" stroke="#B45F06" stroke-width="2"/><text fill="#333333" font-family="Arial,Arial" font-size="20" text-anchor="middle" x="100" y="842">0</text><text fill="#333333" font-family="Arial,Arial" font-size="20" text-anchor="middle" x="210" y="842">6</text><text fill="#333333" font-family="Arial,Arial" font-size="20" text-anchor="middle" x="430" y="842">18</text><text fill="#333333" font-family="Arial,Arial" font-size="20" text-anchor="middle" x="540" y="842">24</text><text fill="#333333" font-family="Arial,Arial" font-size="20" text-anchor="middle" x="760" y="842">36</text><text fill="#333333" font-family="Arial,Arial" font-size="20" text-anchor="middle" x="980" y="842">48</text><text fill="#333333" font-family="Arial,Arial" font-size="20" text-anchor="middle" x="1200" y="842">60</text><text fill="#B45F06" font-family="Arial,Arial" font-weight="700" font-size="20" text-anchor="middle" x="1500" y="842">96+ months</text></g></svg>